<?xml version="1.0" encoding="UTF-8" standalone="no"?>
<!-- Created with Inkscape (http://www.inkscape.org/) -->

<svg
   width="739.99994"
   height="270"
   viewBox="0 0 195.79165 71.437499"
   version="1.1"
   id="svg1"
   xml:space="preserve"
   xmlns="http://www.w3.org/2000/svg"
   xmlns:svg="http://www.w3.org/2000/svg"><defs
     id="defs1" /><g
     id="layer1"><rect
       style="fill:#ffffff;fill-opacity:1;stroke:#cccccc;stroke-width:0.529166;stroke-dasharray:none"
       id="rect547"
       width="195.79166"
       height="71.4375"
       x="-7.1391192e-08"
       y="-1.5894572e-07" /><rect
       style="fill:none;fill-opacity:1;stroke:#808080;stroke-width:0.529168;stroke-dasharray:none"
       id="rect1"
       width="10.58333"
       height="18.52083"
       x="5.2916694"
       y="5.2916665"
       ry="0" /><rect
       style="fill:#ff5555;stroke:#000000;stroke-width:0.529167;stroke-dasharray:none"
       id="rect11"
       width="5.2916665"
       height="5.2916665"
       x="7.9375091"
       y="7.9374471"
       rx="2"
       ry="2" /><circle
       style="fill:#afdde9;stroke:#000000;stroke-width:0.529167;stroke-dasharray:none"
       id="circle11"
       cx="10.583332"
       cy="18.5208"
       r="2.6458333" /><circle
       style="fill:#bec8b7;stroke:#000000;stroke-width:0.529167;stroke-dasharray:none"
       id="circle12"
       cx="21.166666"
       cy="18.5208"
       r="2.6458333" /><rect
       style="fill:#8dd35f;stroke:#000000;stroke-width:0.529167;stroke-dasharray:none"
       id="rect13"
       width="5.2916665"
       height="5.2916665"
       x="50.270832"
       y="7.9374471"
       rx="2"
       ry="2" /><circle
       style="fill:#eeffaa;stroke:#000000;stroke-width:0.529167;stroke-dasharray:none"
       id="circle14"
       cx="52.916656"
       cy="18.5208"
       r="2.6458333" /><circle
       style="fill:#ffd5f6;stroke:#000000;stroke-width:0.529167;stroke-dasharray:none"
       id="circle15"
       cx="74.083328"
       cy="18.5208"
       r="2.6458333" /><rect
       style="fill:#5555ff;stroke:#000000;stroke-width:0.529167;stroke-dasharray:none"
       id="rect15"
       width="5.2916665"
       height="5.2916665"
       x="92.604149"
       y="7.9374471"
       rx="2"
       ry="2" /><circle
       style="fill:#c6afe9;stroke:#000000;stroke-width:0.529167;stroke-dasharray:none"
       id="circle16"
       cx="84.666687"
       cy="18.5208"
       r="2.6458333" /><rect
       style="fill:#ff5555;stroke:#000000;stroke-width:0.529167;stroke-dasharray:none"
       id="rect17"
       width="5.2916665"
       height="5.2916665"
       x="18.520842"
       y="7.9374471"
       rx="2"
       ry="2" /><rect
       style="fill:#8dd35f;stroke:#000000;stroke-width:0.529167;stroke-dasharray:none"
       id="rect18"
       width="5.2916665"
       height="5.2916665"
       x="39.687496"
       y="7.9374471"
       rx="2"
       ry="2" /><rect
       style="fill:#8dd35f;stroke:#000000;stroke-width:0.529167;stroke-dasharray:none"
       id="rect19"
       width="5.2916665"
       height="5.2916665"
       x="29.104162"
       y="7.9374471"
       rx="2"
       ry="2" /><rect
       style="fill:#8dd35f;stroke:#000000;stroke-width:0.529167;stroke-dasharray:none"
       id="rect20"
       width="5.2916665"
       height="5.2916665"
       x="60.854168"
       y="7.9374471"
       rx="2"
       ry="2" /><rect
       style="fill:#8dd35f;stroke:#000000;stroke-width:0.529167;stroke-dasharray:none"
       id="rect21"
       width="5.2916665"
       height="5.2916665"
       x="71.4375"
       y="7.9374471"
       rx="2"
       ry="2" /><rect
       style="fill:#5555ff;stroke:#000000;stroke-width:0.529167;stroke-dasharray:none"
       id="rect22"
       width="5.2916665"
       height="5.2916665"
       x="82.020821"
       y="7.9374471"
       rx="2"
       ry="2" /><rect
       style="fill:#5555ff;stroke:#000000;stroke-width:0.529167;stroke-dasharray:none"
       id="rect23"
       width="5.2916665"
       height="5.2916665"
       x="103.18748"
       y="7.9374471"
       rx="2"
       ry="2" /><circle
       style="fill:#c6afe9;stroke:#000000;stroke-width:0.529167;stroke-dasharray:none"
       id="circle25"
       cx="95.250015"
       cy="18.5208"
       r="2.6458333" /><g
       id="g51"
       transform="translate(-20.017394,-67.651698)"><path
         d="m 54.392029,85.837138 -2.959509,2.959509 a 2.6458333,2.6458333 0 0 0 0.334863,0.0217 2.6458333,2.6458333 0 0 0 2.645833,-2.645833 2.6458333,2.6458333 0 0 0 -0.02119,-0.33538 z"
         style="fill:#ffffff;stroke:#808080;stroke-width:0.529167"
         id="path51" /><path
         d="m 53.95588,84.685787 -3.675228,3.675228 a 2.6458333,2.6458333 0 0 0 1.151868,0.435632 l 2.959509,-2.959509 A 2.6458333,2.6458333 0 0 0 53.95588,84.685787 Z"
         style="fill:#ffffff;stroke:#808080;stroke-width:0.529167"
         id="path50" /><path
         d="m 53.142493,83.911674 -3.635437,3.635437 a 2.6458333,2.6458333 0 0 0 0.773596,0.813904 l 3.675228,-3.675228 a 2.6458333,2.6458333 0 0 0 -0.813387,-0.774113 z"
         style="fill:#ffffff;stroke:#808080;stroke-width:0.529167"
         id="path49" /><path
         d="m 51.934814,83.531852 a 2.6458333,2.6458333 0 0 0 -0.167431,-0.0052 2.6458333,2.6458333 0 0 0 -2.645834,2.645833 2.6458333,2.6458333 0 0 0 0.0052,0.167432 z"
         style="fill:#ffffff;stroke:#808080;stroke-width:0.529167"
         id="path48" /><path
         d="m 51.934814,83.531852 -2.808097,2.808098 a 2.6458333,2.6458333 0 0 0 0.380339,1.207161 l 3.635437,-3.635437 a 2.6458333,2.6458333 0 0 0 -1.207679,-0.379822 z"
         style="fill:#ffffff;stroke:#808080;stroke-width:0.529167"
         id="path47" /></g><g
       id="g56"
       transform="translate(11.732606,-67.651698)"><path
         d="m 54.392029,85.837138 -2.959509,2.959509 a 2.6458333,2.6458333 0 0 0 0.334863,0.0217 2.6458333,2.6458333 0 0 0 2.645833,-2.645833 2.6458333,2.6458333 0 0 0 -0.02119,-0.33538 z"
         style="fill:#ffffff;stroke:#808080;stroke-width:0.529167"
         id="path52" /><path
         d="m 53.95588,84.685787 -3.675228,3.675228 a 2.6458333,2.6458333 0 0 0 1.151868,0.435632 l 2.959509,-2.959509 A 2.6458333,2.6458333 0 0 0 53.95588,84.685787 Z"
         style="fill:#ffffff;stroke:#808080;stroke-width:0.529167"
         id="path53" /><path
         d="m 53.142493,83.911674 -3.635437,3.635437 a 2.6458333,2.6458333 0 0 0 0.773596,0.813904 l 3.675228,-3.675228 a 2.6458333,2.6458333 0 0 0 -0.813387,-0.774113 z"
         style="fill:#ffffff;stroke:#808080;stroke-width:0.529167"
         id="path54" /><path
         d="m 51.934814,83.531852 a 2.6458333,2.6458333 0 0 0 -0.167431,-0.0052 2.6458333,2.6458333 0 0 0 -2.645834,2.645833 2.6458333,2.6458333 0 0 0 0.0052,0.167432 z"
         style="fill:#ffffff;stroke:#808080;stroke-width:0.529167"
         id="path55" /><path
         d="m 51.934814,83.531852 -2.808097,2.808098 a 2.6458333,2.6458333 0 0 0 0.380339,1.207161 l 3.635437,-3.635437 a 2.6458333,2.6458333 0 0 0 -1.207679,-0.379822 z"
         style="fill:#ffffff;stroke:#808080;stroke-width:0.529167"
         id="path56" /></g><g
       id="g61"
       transform="translate(54.065942,-67.651698)"><path
         d="m 54.392029,85.837138 -2.959509,2.959509 a 2.6458333,2.6458333 0 0 0 0.334863,0.0217 2.6458333,2.6458333 0 0 0 2.645833,-2.645833 2.6458333,2.6458333 0 0 0 -0.02119,-0.33538 z"
         style="fill:#ffffff;stroke:#808080;stroke-width:0.529167"
         id="path57" /><path
         d="m 53.95588,84.685787 -3.675228,3.675228 a 2.6458333,2.6458333 0 0 0 1.151868,0.435632 l 2.959509,-2.959509 A 2.6458333,2.6458333 0 0 0 53.95588,84.685787 Z"
         style="fill:#ffffff;stroke:#808080;stroke-width:0.529167"
         id="path58" /><path
         d="m 53.142493,83.911674 -3.635437,3.635437 a 2.6458333,2.6458333 0 0 0 0.773596,0.813904 l 3.675228,-3.675228 a 2.6458333,2.6458333 0 0 0 -0.813387,-0.774113 z"
         style="fill:#ffffff;stroke:#808080;stroke-width:0.529167"
         id="path59" /><path
         d="m 51.934814,83.531852 a 2.6458333,2.6458333 0 0 0 -0.167431,-0.0052 2.6458333,2.6458333 0 0 0 -2.645834,2.645833 2.6458333,2.6458333 0 0 0 0.0052,0.167432 z"
         style="fill:#ffffff;stroke:#808080;stroke-width:0.529167"
         id="path60" /><path
         d="m 51.934814,83.531852 -2.808097,2.808098 a 2.6458333,2.6458333 0 0 0 0.380339,1.207161 l 3.635437,-3.635437 a 2.6458333,2.6458333 0 0 0 -1.207679,-0.379822 z"
         style="fill:#ffffff;stroke:#808080;stroke-width:0.529167"
         id="path61" /></g><g
       id="g66"
       transform="translate(-9.4340603,-67.651698)"><path
         d="m 54.392029,85.837138 -2.959509,2.959509 a 2.6458333,2.6458333 0 0 0 0.334863,0.0217 2.6458333,2.6458333 0 0 0 2.645833,-2.645833 2.6458333,2.6458333 0 0 0 -0.02119,-0.33538 z"
         style="fill:#ffffff;stroke:#808080;stroke-width:0.529167"
         id="path62" /><path
         d="m 53.95588,84.685787 -3.675228,3.675228 a 2.6458333,2.6458333 0 0 0 1.151868,0.435632 l 2.959509,-2.959509 A 2.6458333,2.6458333 0 0 0 53.95588,84.685787 Z"
         style="fill:#ffffff;stroke:#808080;stroke-width:0.529167"
         id="path63" /><path
         d="m 53.142493,83.911674 -3.635437,3.635437 a 2.6458333,2.6458333 0 0 0 0.773596,0.813904 l 3.675228,-3.675228 a 2.6458333,2.6458333 0 0 0 -0.813387,-0.774113 z"
         style="fill:#ffffff;stroke:#808080;stroke-width:0.529167"
         id="path64" /><path
         d="m 51.934814,83.531852 a 2.6458333,2.6458333 0 0 0 -0.167431,-0.0052 2.6458333,2.6458333 0 0 0 -2.645834,2.645833 2.6458333,2.6458333 0 0 0 0.0052,0.167432 z"
         style="fill:#ffffff;stroke:#808080;stroke-width:0.529167"
         id="path65" /><path
         d="m 51.934814,83.531852 -2.808097,2.808098 a 2.6458333,2.6458333 0 0 0 0.380339,1.207161 l 3.635437,-3.635437 a 2.6458333,2.6458333 0 0 0 -1.207679,-0.379822 z"
         style="fill:#ffffff;stroke:#808080;stroke-width:0.529167"
         id="path66" /></g><rect
       style="fill:#ffffff;fill-opacity:1;stroke:#000000;stroke-width:0.529168;stroke-dasharray:none"
       id="rect66"
       width="105.83333"
       height="21.166693"
       x="5.2916698"
       y="31.74996"
       ry="0" /><text
       xml:space="preserve"
       style="font-weight:bold;font-size:4.93889px;line-height:0.8;font-family:'Courier New';-inkscape-font-specification:'Courier New Bold';text-align:center;writing-mode:lr-tb;direction:ltr;text-anchor:middle;fill:#000000;stroke:none;stroke-width:0.529167"
       x="58.243301"
       y="43.856224"
       id="text66"><tspan
         id="tspan66"
         style="font-size:4.93889px;fill:#000000;stroke:none;stroke-width:0.529167"
         x="58.243305"
         y="43.856224">Bidirectional Transformer</tspan></text><g
       id="g67"
       transform="translate(0,-42.333335)"><path
         style="fill:none;fill-opacity:1;stroke:#000000;stroke-width:0.529167;stroke-dasharray:none"
         d="m 10.583333,68.791666 v 2.645833"
         id="path67" /><path
         id="rect67"
         style="fill:#000000;stroke:none;stroke-width:0.529165"
         d="m 9.260417,71.437499 h 2.645832 l -1.322916,2.645829 z" /></g><g
       id="g69"
       transform="translate(10.583333,-42.333335)"><path
         style="fill:none;fill-opacity:1;stroke:#000000;stroke-width:0.529167;stroke-dasharray:none"
         d="m 10.583333,68.791666 v 2.645833"
         id="path68" /><path
         id="path69"
         style="fill:#000000;stroke:none;stroke-width:0.529165"
         d="m 9.260417,71.437499 h 2.645832 l -1.322916,2.645829 z" /></g><g
       id="g71"
       transform="translate(21.166667,-42.333335)"><path
         style="fill:none;fill-opacity:1;stroke:#000000;stroke-width:0.529167;stroke-dasharray:none"
         d="m 10.583333,68.791666 v 2.645833"
         id="path70" /><path
         id="path71"
         style="fill:#000000;stroke:none;stroke-width:0.529165"
         d="m 9.260417,71.437499 h 2.645832 l -1.322916,2.645829 z" /></g><g
       id="g73"
       transform="translate(31.750001,-42.333335)"><path
         style="fill:none;fill-opacity:1;stroke:#000000;stroke-width:0.529167;stroke-dasharray:none"
         d="m 10.583333,68.791666 v 2.645833"
         id="path72" /><path
         id="path73"
         style="fill:#000000;stroke:none;stroke-width:0.529165"
         d="m 9.260417,71.437499 h 2.645832 l -1.322916,2.645829 z" /></g><g
       id="g75"
       transform="translate(42.333335,-42.333335)"><path
         style="fill:none;fill-opacity:1;stroke:#000000;stroke-width:0.529167;stroke-dasharray:none"
         d="m 10.583333,68.791666 v 2.645833"
         id="path74" /><path
         id="path75"
         style="fill:#000000;stroke:none;stroke-width:0.529165"
         d="m 9.260417,71.437499 h 2.645832 l -1.322916,2.645829 z" /></g><g
       id="g77"
       transform="translate(52.916669,-42.333335)"><path
         style="fill:none;fill-opacity:1;stroke:#000000;stroke-width:0.529167;stroke-dasharray:none"
         d="m 10.583333,68.791666 v 2.645833"
         id="path76" /><path
         id="path77"
         style="fill:#000000;stroke:none;stroke-width:0.529165"
         d="m 9.260417,71.437499 h 2.645832 l -1.322916,2.645829 z" /></g><g
       id="g79"
       transform="translate(63.500003,-42.333335)"><path
         style="fill:none;fill-opacity:1;stroke:#000000;stroke-width:0.529167;stroke-dasharray:none"
         d="m 10.583333,68.791666 v 2.645833"
         id="path78" /><path
         id="path79"
         style="fill:#000000;stroke:none;stroke-width:0.529165"
         d="m 9.260417,71.437499 h 2.645832 l -1.322916,2.645829 z" /></g><g
       id="g81"
       transform="translate(74.083337,-42.333335)"><path
         style="fill:none;fill-opacity:1;stroke:#000000;stroke-width:0.529167;stroke-dasharray:none"
         d="m 10.583333,68.791666 v 2.645833"
         id="path80" /><path
         id="path81"
         style="fill:#000000;stroke:none;stroke-width:0.529165"
         d="m 9.260417,71.437499 h 2.645832 l -1.322916,2.645829 z" /></g><g
       id="g83"
       transform="translate(84.666671,-42.333335)"><path
         style="fill:none;fill-opacity:1;stroke:#000000;stroke-width:0.529167;stroke-dasharray:none"
         d="m 10.583333,68.791666 v 2.645833"
         id="path82" /><path
         id="path83"
         style="fill:#000000;stroke:none;stroke-width:0.529165"
         d="m 9.260417,71.437499 h 2.645832 l -1.322916,2.645829 z" /></g><g
       id="g85"
       transform="translate(95.250003,-42.333335)"><path
         style="fill:none;fill-opacity:1;stroke:#000000;stroke-width:0.529167;stroke-dasharray:none"
         d="m 10.583333,68.791666 v 2.645833"
         id="path84" /><path
         id="path85"
         style="fill:#000000;stroke:none;stroke-width:0.529165"
         d="m 9.260417,71.437499 h 2.645832 l -1.322916,2.645829 z" /></g><g
       id="g94"
       transform="translate(21.166667,-15.875)"><path
         style="fill:none;fill-opacity:1;stroke:#000000;stroke-width:0.529167;stroke-dasharray:none"
         d="m 10.583333,68.791666 v 2.645833"
         id="path93" /><path
         id="path94"
         style="fill:#000000;stroke:none;stroke-width:0.529165"
         d="m 9.260417,71.437499 h 2.645832 l -1.322916,2.645829 z" /></g><g
       id="g96"
       transform="translate(31.750001,-15.875)"><path
         style="fill:none;fill-opacity:1;stroke:#000000;stroke-width:0.529167;stroke-dasharray:none"
         d="m 10.583333,68.791666 v 2.645833"
         id="path95" /><path
         id="path96"
         style="fill:#000000;stroke:none;stroke-width:0.529165"
         d="m 9.260417,71.437499 h 2.645832 l -1.322916,2.645829 z" /></g><g
       id="g100"
       transform="translate(52.916669,-15.875)"><path
         style="fill:none;fill-opacity:1;stroke:#000000;stroke-width:0.529167;stroke-dasharray:none"
         d="m 10.583333,68.791666 v 2.645833"
         id="path99" /><path
         id="path100"
         style="fill:#000000;stroke:none;stroke-width:0.529165"
         d="m 9.260417,71.437499 h 2.645832 l -1.322916,2.645829 z" /></g><g
       id="g108"
       transform="translate(95.250003,-15.875)"><path
         style="fill:none;fill-opacity:1;stroke:#000000;stroke-width:0.529167;stroke-dasharray:none"
         d="m 10.583333,68.791666 v 2.645833"
         id="path107" /><path
         id="path108"
         style="fill:#000000;stroke:none;stroke-width:0.529165"
         d="m 9.260417,71.437499 h 2.645832 l -1.322916,2.645829 z" /></g><rect
       style="fill:none;fill-opacity:1;stroke:#808080;stroke-width:0.529168;stroke-dasharray:none"
       id="rect108"
       width="10.58333"
       height="18.52083"
       x="15.875003"
       y="5.2916665"
       ry="0" /><rect
       style="fill:none;fill-opacity:1;stroke:#808080;stroke-width:0.529168;stroke-dasharray:none"
       id="rect109"
       width="10.58333"
       height="18.52083"
       x="26.458336"
       y="5.2916665"
       ry="0" /><rect
       style="fill:none;fill-opacity:1;stroke:#808080;stroke-width:0.529168;stroke-dasharray:none"
       id="rect110"
       width="10.58333"
       height="18.52083"
       x="37.041668"
       y="5.2916665"
       ry="0" /><rect
       style="fill:none;fill-opacity:1;stroke:#808080;stroke-width:0.529168;stroke-dasharray:none"
       id="rect111"
       width="10.58333"
       height="18.52083"
       x="47.625004"
       y="5.2916665"
       ry="0" /><rect
       style="fill:none;fill-opacity:1;stroke:#808080;stroke-width:0.529168;stroke-dasharray:none"
       id="rect112"
       width="10.58333"
       height="18.52083"
       x="58.20834"
       y="5.2916665"
       ry="0" /><rect
       style="fill:none;fill-opacity:1;stroke:#808080;stroke-width:0.529168;stroke-dasharray:none"
       id="rect113"
       width="10.58333"
       height="18.52083"
       x="68.791672"
       y="5.2916665"
       ry="0" /><rect
       style="fill:none;fill-opacity:1;stroke:#808080;stroke-width:0.529168;stroke-dasharray:none"
       id="rect114"
       width="10.58333"
       height="18.52083"
       x="79.375"
       y="5.2916665"
       ry="0" /><rect
       style="fill:none;fill-opacity:1;stroke:#808080;stroke-width:0.529168;stroke-dasharray:none"
       id="rect115"
       width="10.58333"
       height="18.52083"
       x="89.958328"
       y="5.2916665"
       ry="0" /><rect
       style="fill:none;fill-opacity:1;stroke:#808080;stroke-width:0.529168;stroke-dasharray:none"
       id="rect116"
       width="10.58333"
       height="18.52083"
       x="100.54166"
       y="5.2916665"
       ry="0" /><text
       xml:space="preserve"
       style="font-weight:bold;font-size:4.93889px;line-height:0.8;font-family:'Courier New';-inkscape-font-specification:'Courier New Bold';text-align:center;writing-mode:lr-tb;direction:ltr;text-anchor:middle;fill:#000000;stroke:none;stroke-width:0.529167"
       x="153.49332"
       y="12.106185"
       id="text116"><tspan
         id="tspan116"
         style="font-size:4.93889px;fill:#000000;stroke:none;stroke-width:0.529167"
         x="153.49332"
         y="12.106185">Coarse Semantic Units</tspan></text><text
       xml:space="preserve"
       style="font-weight:bold;font-size:4.93889px;line-height:0.8;font-family:'Courier New';-inkscape-font-specification:'Courier New Bold';text-align:center;writing-mode:lr-tb;direction:ltr;text-anchor:middle;fill:#000000;stroke:none;stroke-width:0.529167"
       x="153.49332"
       y="20.043707"
       id="text117"><tspan
         id="tspan117"
         style="font-size:4.93889px;fill:#000000;stroke:none;stroke-width:0.529167"
         x="153.49332"
         y="20.043707">HuBERT Discrete Units</tspan></text><circle
       style="fill:#deaa87;fill-opacity:1;stroke:#000000;stroke-width:0.529167;stroke-dasharray:none"
       id="circle145"
       cx="31.749998"
       cy="63.499966"
       r="2.6458333" /><circle
       style="fill:#deaa87;fill-opacity:1;stroke:#000000;stroke-width:0.529167;stroke-dasharray:none"
       id="circle146"
       cx="42.333332"
       cy="63.499966"
       r="2.6458333" /><circle
       style="fill:#eeffaa;fill-opacity:1;stroke:#000000;stroke-width:0.529167;stroke-dasharray:none"
       id="circle147"
       cx="63.500004"
       cy="63.499966"
       r="2.6458333" /><circle
       style="fill:#afdde9;fill-opacity:1;stroke:#000000;stroke-width:0.529167;stroke-dasharray:none"
       id="circle148"
       cx="105.83331"
       cy="63.499966"
       r="2.6458333" /><text
       xml:space="preserve"
       style="font-weight:bold;font-size:4.93889px;line-height:0.8;font-family:'Courier New';-inkscape-font-specification:'Courier New Bold';text-align:center;writing-mode:lr-tb;direction:ltr;text-anchor:middle;fill:#000000;stroke:none;stroke-width:0.529167"
       x="153.49332"
       y="65.022873"
       id="text148"><tspan
         id="tspan148"
         style="font-size:4.93889px;fill:#000000;stroke:none;stroke-width:0.529167"
         x="153.49332"
         y="65.022873">HuBERT Discrete Units</tspan></text></g></svg>
