<?xml version="1.0" encoding="UTF-8" standalone="no"?>
<!-- Created with Inkscape (http://www.inkscape.org/) -->

<svg
   width="739.99994"
   height="460"
   viewBox="0 0 195.79165 121.70833"
   version="1.1"
   id="svg1"
   xml:space="preserve"
   xmlns="http://www.w3.org/2000/svg"
   xmlns:svg="http://www.w3.org/2000/svg"><defs
     id="defs1" /><g
     id="layer1"
     transform="translate(0,-79.375002)"><rect
       style="fill:#ffffff;fill-opacity:1;stroke:#cccccc;stroke-width:0.529165;stroke-dasharray:none"
       id="rect149"
       width="195.79166"
       height="121.70833"
       x="-7.1391192e-08"
       y="79.375" /><rect
       style="fill:#ffffff;fill-opacity:1;stroke:#000000;stroke-width:0.529168;stroke-dasharray:none"
       id="rect150"
       width="105.83333"
       height="10.583382"
       x="5.2916698"
       y="100.54162"
       ry="0" /><text
       xml:space="preserve"
       style="font-weight:bold;font-size:4.93889px;line-height:0.8;font-family:'Courier New';-inkscape-font-specification:'Courier New Bold';text-align:center;writing-mode:lr-tb;direction:ltr;text-anchor:middle;fill:#000000;stroke:none;stroke-width:0.529167"
       x="58.243301"
       y="107.35621"
       id="text150"><tspan
         id="tspan150"
         style="font-size:4.93889px;fill:#000000;stroke:none;stroke-width:0.529167"
         x="58.243301"
         y="107.35621">MaskGIT Sequence Decoder</tspan></text><rect
       style="fill:#ff5555;stroke:#000000;stroke-width:0.529167;stroke-dasharray:none"
       id="rect151"
       width="5.2916665"
       height="5.2916665"
       x="7.9375091"
       y="87.312439"
       rx="2"
       ry="2" /><rect
       style="fill:#8dd35f;stroke:#000000;stroke-width:0.529167;stroke-dasharray:none"
       id="rect152"
       width="5.2916665"
       height="5.2916665"
       x="50.270832"
       y="87.312439"
       rx="2"
       ry="2" /><rect
       style="fill:#5555ff;stroke:#000000;stroke-width:0.529167;stroke-dasharray:none"
       id="rect153"
       width="5.2916665"
       height="5.2916665"
       x="92.604149"
       y="87.312439"
       rx="2"
       ry="2" /><rect
       style="fill:#ff5555;stroke:#000000;stroke-width:0.529167;stroke-dasharray:none"
       id="rect154"
       width="5.2916665"
       height="5.2916665"
       x="18.520842"
       y="87.312439"
       rx="2"
       ry="2" /><rect
       style="fill:#8dd35f;stroke:#000000;stroke-width:0.529167;stroke-dasharray:none"
       id="rect155"
       width="5.2916665"
       height="5.2916665"
       x="39.687496"
       y="87.312439"
       rx="2"
       ry="2" /><rect
       style="fill:#8dd35f;stroke:#000000;stroke-width:0.529167;stroke-dasharray:none"
       id="rect156"
       width="5.2916665"
       height="5.2916665"
       x="29.104162"
       y="87.312439"
       rx="2"
       ry="2" /><rect
       style="fill:#8dd35f;stroke:#000000;stroke-width:0.529167;stroke-dasharray:none"
       id="rect157"
       width="5.2916665"
       height="5.2916665"
       x="60.854168"
       y="87.312439"
       rx="2"
       ry="2" /><rect
       style="fill:#8dd35f;stroke:#000000;stroke-width:0.529167;stroke-dasharray:none"
       id="rect158"
       width="5.2916665"
       height="5.2916665"
       x="71.4375"
       y="87.312439"
       rx="2"
       ry="2" /><rect
       style="fill:#5555ff;stroke:#000000;stroke-width:0.529167;stroke-dasharray:none"
       id="rect159"
       width="5.2916665"
       height="5.2916665"
       x="82.020821"
       y="87.312439"
       rx="2"
       ry="2" /><rect
       style="fill:#5555ff;stroke:#000000;stroke-width:0.529167;stroke-dasharray:none"
       id="rect160"
       width="5.2916665"
       height="5.2916665"
       x="103.18748"
       y="87.312439"
       rx="2"
       ry="2" /><g
       id="g161"
       transform="translate(0,26.458334)"><path
         style="fill:none;fill-opacity:1;stroke:#000000;stroke-width:0.529167;stroke-dasharray:none"
         d="m 10.583333,68.791666 v 2.645833"
         id="path160" /><path
         id="path161"
         style="fill:#000000;stroke:none;stroke-width:0.529165"
         d="m 9.260417,71.437499 h 2.645832 l -1.322916,2.645829 z" /></g><g
       id="g163"
       transform="translate(10.583333,26.458334)"><path
         style="fill:none;fill-opacity:1;stroke:#000000;stroke-width:0.529167;stroke-dasharray:none"
         d="m 10.583333,68.791666 v 2.645833"
         id="path162" /><path
         id="path163"
         style="fill:#000000;stroke:none;stroke-width:0.529165"
         d="m 9.260417,71.437499 h 2.645832 l -1.322916,2.645829 z" /></g><g
       id="g165"
       transform="translate(21.166667,26.458334)"><path
         style="fill:none;fill-opacity:1;stroke:#000000;stroke-width:0.529167;stroke-dasharray:none"
         d="m 10.583333,68.791666 v 2.645833"
         id="path164" /><path
         id="path165"
         style="fill:#000000;stroke:none;stroke-width:0.529165"
         d="m 9.260417,71.437499 h 2.645832 l -1.322916,2.645829 z" /></g><g
       id="g167"
       transform="translate(31.750001,26.458334)"><path
         style="fill:none;fill-opacity:1;stroke:#000000;stroke-width:0.529167;stroke-dasharray:none"
         d="m 10.583333,68.791666 v 2.645833"
         id="path166" /><path
         id="path167"
         style="fill:#000000;stroke:none;stroke-width:0.529165"
         d="m 9.260417,71.437499 h 2.645832 l -1.322916,2.645829 z" /></g><g
       id="g169"
       transform="translate(42.333335,26.458334)"><path
         style="fill:none;fill-opacity:1;stroke:#000000;stroke-width:0.529167;stroke-dasharray:none"
         d="m 10.583333,68.791666 v 2.645833"
         id="path168" /><path
         id="path169"
         style="fill:#000000;stroke:none;stroke-width:0.529165"
         d="m 9.260417,71.437499 h 2.645832 l -1.322916,2.645829 z" /></g><g
       id="g171"
       transform="translate(52.916669,26.458334)"><path
         style="fill:none;fill-opacity:1;stroke:#000000;stroke-width:0.529167;stroke-dasharray:none"
         d="m 10.583333,68.791666 v 2.645833"
         id="path170" /><path
         id="path171"
         style="fill:#000000;stroke:none;stroke-width:0.529165"
         d="m 9.260417,71.437499 h 2.645832 l -1.322916,2.645829 z" /></g><g
       id="g173"
       transform="translate(63.500003,26.458334)"><path
         style="fill:none;fill-opacity:1;stroke:#000000;stroke-width:0.529167;stroke-dasharray:none"
         d="m 10.583333,68.791666 v 2.645833"
         id="path172" /><path
         id="path173"
         style="fill:#000000;stroke:none;stroke-width:0.529165"
         d="m 9.260417,71.437499 h 2.645832 l -1.322916,2.645829 z" /></g><g
       id="g175"
       transform="translate(74.083337,26.458334)"><path
         style="fill:none;fill-opacity:1;stroke:#000000;stroke-width:0.529167;stroke-dasharray:none"
         d="m 10.583333,68.791666 v 2.645833"
         id="path174" /><path
         id="path175"
         style="fill:#000000;stroke:none;stroke-width:0.529165"
         d="m 9.260417,71.437499 h 2.645832 l -1.322916,2.645829 z" /></g><g
       id="g177"
       transform="translate(84.666671,26.458334)"><path
         style="fill:none;fill-opacity:1;stroke:#000000;stroke-width:0.529167;stroke-dasharray:none"
         d="m 10.583333,68.791666 v 2.645833"
         id="path176" /><path
         id="path177"
         style="fill:#000000;stroke:none;stroke-width:0.529165"
         d="m 9.260417,71.437499 h 2.645832 l -1.322916,2.645829 z" /></g><g
       id="g179"
       transform="translate(95.250003,26.458334)"><path
         style="fill:none;fill-opacity:1;stroke:#000000;stroke-width:0.529167;stroke-dasharray:none"
         d="m 10.583333,68.791666 v 2.645833"
         id="path178" /><path
         id="path179"
         style="fill:#000000;stroke:none;stroke-width:0.529165"
         d="m 9.260417,71.437499 h 2.645832 l -1.322916,2.645829 z" /></g><circle
       style="fill:#afdde9;stroke:#000000;stroke-width:0.529167;stroke-dasharray:none"
       id="circle179"
       cx="10.583332"
       cy="121.70824"
       r="2.6458333" /><circle
       style="fill:#bec8b7;stroke:#000000;stroke-width:0.529167;stroke-dasharray:none"
       id="circle180"
       cx="21.166666"
       cy="121.70824"
       r="2.6458333" /><circle
       style="fill:#eeffaa;stroke:#000000;stroke-width:0.529167;stroke-dasharray:none"
       id="circle181"
       cx="52.916656"
       cy="121.70824"
       r="2.6458333" /><circle
       style="fill:#ffd5f6;stroke:#000000;stroke-width:0.529167;stroke-dasharray:none"
       id="circle182"
       cx="74.083328"
       cy="121.70824"
       r="2.6458333" /><circle
       style="fill:#c6afe9;stroke:#000000;stroke-width:0.529167;stroke-dasharray:none"
       id="circle183"
       cx="84.666687"
       cy="121.70824"
       r="2.6458333" /><circle
       style="fill:#c6afe9;stroke:#000000;stroke-width:0.529167;stroke-dasharray:none"
       id="circle184"
       cx="95.250015"
       cy="121.70824"
       r="2.6458333" /><g
       id="g205"
       transform="translate(0,42.333335)"><path
         style="fill:none;fill-opacity:1;stroke:#000000;stroke-width:0.529167;stroke-dasharray:none"
         d="m 10.583333,68.791666 v 2.645833"
         id="path204" /><path
         id="path205"
         style="fill:#000000;stroke:none;stroke-width:0.529165"
         d="m 9.260417,71.437499 h 2.645832 l -1.322916,2.645829 z" /></g><g
       id="g207"
       transform="translate(10.583333,42.333335)"><path
         style="fill:none;fill-opacity:1;stroke:#000000;stroke-width:0.529167;stroke-dasharray:none"
         d="m 10.583333,68.791666 v 2.645833"
         id="path206" /><path
         id="path207"
         style="fill:#000000;stroke:none;stroke-width:0.529165"
         d="m 9.260417,71.437499 h 2.645832 l -1.322916,2.645829 z" /></g><g
       id="g209"
       transform="translate(21.166667,42.333335)"><path
         style="fill:none;fill-opacity:1;stroke:#000000;stroke-width:0.529167;stroke-dasharray:none"
         d="m 10.583333,68.791666 v 2.645833"
         id="path208" /><path
         id="path209"
         style="fill:#000000;stroke:none;stroke-width:0.529165"
         d="m 9.260417,71.437499 h 2.645832 l -1.322916,2.645829 z" /></g><g
       id="g211"
       transform="translate(31.750001,42.333335)"><path
         style="fill:none;fill-opacity:1;stroke:#000000;stroke-width:0.529167;stroke-dasharray:none"
         d="m 10.583333,68.791666 v 2.645833"
         id="path210" /><path
         id="path211"
         style="fill:#000000;stroke:none;stroke-width:0.529165"
         d="m 9.260417,71.437499 h 2.645832 l -1.322916,2.645829 z" /></g><g
       id="g213"
       transform="translate(42.333335,42.333335)"><path
         style="fill:none;fill-opacity:1;stroke:#000000;stroke-width:0.529167;stroke-dasharray:none"
         d="m 10.583333,68.791666 v 2.645833"
         id="path212" /><path
         id="path213"
         style="fill:#000000;stroke:none;stroke-width:0.529165"
         d="m 9.260417,71.437499 h 2.645832 l -1.322916,2.645829 z" /></g><g
       id="g215"
       transform="translate(52.916669,42.333335)"><path
         style="fill:none;fill-opacity:1;stroke:#000000;stroke-width:0.529167;stroke-dasharray:none"
         d="m 10.583333,68.791666 v 2.645833"
         id="path214" /><path
         id="path215"
         style="fill:#000000;stroke:none;stroke-width:0.529165"
         d="m 9.260417,71.437499 h 2.645832 l -1.322916,2.645829 z" /></g><g
       id="g217"
       transform="translate(63.500003,42.333335)"><path
         style="fill:none;fill-opacity:1;stroke:#000000;stroke-width:0.529167;stroke-dasharray:none"
         d="m 10.583333,68.791666 v 2.645833"
         id="path216" /><path
         id="path217"
         style="fill:#000000;stroke:none;stroke-width:0.529165"
         d="m 9.260417,71.437499 h 2.645832 l -1.322916,2.645829 z" /></g><g
       id="g219"
       transform="translate(74.083337,42.333335)"><path
         style="fill:none;fill-opacity:1;stroke:#000000;stroke-width:0.529167;stroke-dasharray:none"
         d="m 10.583333,68.791666 v 2.645833"
         id="path218" /><path
         id="path219"
         style="fill:#000000;stroke:none;stroke-width:0.529165"
         d="m 9.260417,71.437499 h 2.645832 l -1.322916,2.645829 z" /></g><g
       id="g221"
       transform="translate(84.666671,42.333335)"><path
         style="fill:none;fill-opacity:1;stroke:#000000;stroke-width:0.529167;stroke-dasharray:none"
         d="m 10.583333,68.791666 v 2.645833"
         id="path220" /><path
         id="path221"
         style="fill:#000000;stroke:none;stroke-width:0.529165"
         d="m 9.260417,71.437499 h 2.645832 l -1.322916,2.645829 z" /></g><g
       id="g223"
       transform="translate(95.250003,42.333335)"><path
         style="fill:none;fill-opacity:1;stroke:#000000;stroke-width:0.529167;stroke-dasharray:none"
         d="m 10.583333,68.791666 v 2.645833"
         id="path222" /><path
         id="path223"
         style="fill:#000000;stroke:none;stroke-width:0.529165"
         d="m 9.260417,71.437499 h 2.645832 l -1.322916,2.645829 z" /></g><rect
       style="fill:#ffffff;fill-opacity:1;stroke:#000000;stroke-width:0.529168;stroke-dasharray:none"
       id="rect223"
       width="105.83333"
       height="10.583397"
       x="5.2916698"
       y="132.2916"
       ry="0" /><g
       id="g225"
       transform="translate(0,58.208336)"><path
         style="fill:none;fill-opacity:1;stroke:#000000;stroke-width:0.529167;stroke-dasharray:none"
         d="m 10.583333,68.791666 v 2.645833"
         id="path224" /><path
         id="path225"
         style="fill:#000000;stroke:none;stroke-width:0.529165"
         d="m 9.260417,71.437499 h 2.645832 l -1.322916,2.645829 z" /></g><g
       id="g227"
       transform="translate(10.583333,58.208336)"><path
         style="fill:none;fill-opacity:1;stroke:#000000;stroke-width:0.529167;stroke-dasharray:none"
         d="m 10.583333,68.791666 v 2.645833"
         id="path226" /><path
         id="path227"
         style="fill:#000000;stroke:none;stroke-width:0.529165"
         d="m 9.260417,71.437499 h 2.645832 l -1.322916,2.645829 z" /></g><g
       id="g229"
       transform="translate(21.166667,58.208336)"><path
         style="fill:none;fill-opacity:1;stroke:#000000;stroke-width:0.529167;stroke-dasharray:none"
         d="m 10.583333,68.791666 v 2.645833"
         id="path228" /><path
         id="path229"
         style="fill:#000000;stroke:none;stroke-width:0.529165"
         d="m 9.260417,71.437499 h 2.645832 l -1.322916,2.645829 z" /></g><g
       id="g231"
       transform="translate(31.750001,58.208336)"><path
         style="fill:none;fill-opacity:1;stroke:#000000;stroke-width:0.529167;stroke-dasharray:none"
         d="m 10.583333,68.791666 v 2.645833"
         id="path230" /><path
         id="path231"
         style="fill:#000000;stroke:none;stroke-width:0.529165"
         d="m 9.260417,71.437499 h 2.645832 l -1.322916,2.645829 z" /></g><g
       id="g233"
       transform="translate(42.333335,58.208336)"><path
         style="fill:none;fill-opacity:1;stroke:#000000;stroke-width:0.529167;stroke-dasharray:none"
         d="m 10.583333,68.791666 v 2.645833"
         id="path232" /><path
         id="path233"
         style="fill:#000000;stroke:none;stroke-width:0.529165"
         d="m 9.260417,71.437499 h 2.645832 l -1.322916,2.645829 z" /></g><g
       id="g235"
       transform="translate(52.916669,58.208336)"><path
         style="fill:none;fill-opacity:1;stroke:#000000;stroke-width:0.529167;stroke-dasharray:none"
         d="m 10.583333,68.791666 v 2.645833"
         id="path234" /><path
         id="path235"
         style="fill:#000000;stroke:none;stroke-width:0.529165"
         d="m 9.260417,71.437499 h 2.645832 l -1.322916,2.645829 z" /></g><g
       id="g237"
       transform="translate(63.500003,58.208336)"><path
         style="fill:none;fill-opacity:1;stroke:#000000;stroke-width:0.529167;stroke-dasharray:none"
         d="m 10.583333,68.791666 v 2.645833"
         id="path236" /><path
         id="path237"
         style="fill:#000000;stroke:none;stroke-width:0.529165"
         d="m 9.260417,71.437499 h 2.645832 l -1.322916,2.645829 z" /></g><g
       id="g239"
       transform="translate(74.083337,58.208336)"><path
         style="fill:none;fill-opacity:1;stroke:#000000;stroke-width:0.529167;stroke-dasharray:none"
         d="m 10.583333,68.791666 v 2.645833"
         id="path238" /><path
         id="path239"
         style="fill:#000000;stroke:none;stroke-width:0.529165"
         d="m 9.260417,71.437499 h 2.645832 l -1.322916,2.645829 z" /></g><g
       id="g241"
       transform="translate(84.666671,58.208336)"><path
         style="fill:none;fill-opacity:1;stroke:#000000;stroke-width:0.529167;stroke-dasharray:none"
         d="m 10.583333,68.791666 v 2.645833"
         id="path240" /><path
         id="path241"
         style="fill:#000000;stroke:none;stroke-width:0.529165"
         d="m 9.260417,71.437499 h 2.645832 l -1.322916,2.645829 z" /></g><g
       id="g243"
       transform="translate(95.250003,58.208336)"><path
         style="fill:none;fill-opacity:1;stroke:#000000;stroke-width:0.529167;stroke-dasharray:none"
         d="m 10.583333,68.791666 v 2.645833"
         id="path242" /><path
         id="path243"
         style="fill:#000000;stroke:none;stroke-width:0.529165"
         d="m 9.260417,71.437499 h 2.645832 l -1.322916,2.645829 z" /></g><text
       xml:space="preserve"
       style="font-weight:bold;font-size:4.93889px;line-height:0.8;font-family:'Courier New';-inkscape-font-specification:'Courier New Bold';text-align:center;writing-mode:lr-tb;direction:ltr;text-anchor:middle;fill:#000000;stroke:none;stroke-width:0.529167"
       x="58.243301"
       y="139.10622"
       id="text243"><tspan
         id="tspan243"
         style="font-size:4.93889px;fill:#000000;stroke:none;stroke-width:0.529167"
         x="58.243301"
         y="139.10622">Acoustic Model</tspan></text><g
       id="g269"
       transform="translate(0,74.083337)"><path
         style="fill:none;fill-opacity:1;stroke:#000000;stroke-width:0.529167;stroke-dasharray:none"
         d="m 10.583333,68.791666 v 2.645833"
         id="path268" /><path
         id="path269"
         style="fill:#000000;stroke:none;stroke-width:0.529165"
         d="m 9.260417,71.437499 h 2.645832 l -1.322916,2.645829 z" /></g><g
       id="g271"
       transform="translate(10.583333,74.083337)"><path
         style="fill:none;fill-opacity:1;stroke:#000000;stroke-width:0.529167;stroke-dasharray:none"
         d="m 10.583333,68.791666 v 2.645833"
         id="path270" /><path
         id="path271"
         style="fill:#000000;stroke:none;stroke-width:0.529165"
         d="m 9.260417,71.437499 h 2.645832 l -1.322916,2.645829 z" /></g><g
       id="g273"
       transform="translate(21.166667,74.083337)"><path
         style="fill:none;fill-opacity:1;stroke:#000000;stroke-width:0.529167;stroke-dasharray:none"
         d="m 10.583333,68.791666 v 2.645833"
         id="path272" /><path
         id="path273"
         style="fill:#000000;stroke:none;stroke-width:0.529165"
         d="m 9.260417,71.437499 h 2.645832 l -1.322916,2.645829 z" /></g><g
       id="g275"
       transform="translate(31.750001,74.083337)"><path
         style="fill:none;fill-opacity:1;stroke:#000000;stroke-width:0.529167;stroke-dasharray:none"
         d="m 10.583333,68.791666 v 2.645833"
         id="path274" /><path
         id="path275"
         style="fill:#000000;stroke:none;stroke-width:0.529165"
         d="m 9.260417,71.437499 h 2.645832 l -1.322916,2.645829 z" /></g><g
       id="g277"
       transform="translate(42.333335,74.083337)"><path
         style="fill:none;fill-opacity:1;stroke:#000000;stroke-width:0.529167;stroke-dasharray:none"
         d="m 10.583333,68.791666 v 2.645833"
         id="path276" /><path
         id="path277"
         style="fill:#000000;stroke:none;stroke-width:0.529165"
         d="m 9.260417,71.437499 h 2.645832 l -1.322916,2.645829 z" /></g><g
       id="g279"
       transform="translate(52.916669,74.083337)"><path
         style="fill:none;fill-opacity:1;stroke:#000000;stroke-width:0.529167;stroke-dasharray:none"
         d="m 10.583333,68.791666 v 2.645833"
         id="path278" /><path
         id="path279"
         style="fill:#000000;stroke:none;stroke-width:0.529165"
         d="m 9.260417,71.437499 h 2.645832 l -1.322916,2.645829 z" /></g><g
       id="g281"
       transform="translate(63.500003,74.083337)"><path
         style="fill:none;fill-opacity:1;stroke:#000000;stroke-width:0.529167;stroke-dasharray:none"
         d="m 10.583333,68.791666 v 2.645833"
         id="path280" /><path
         id="path281"
         style="fill:#000000;stroke:none;stroke-width:0.529165"
         d="m 9.260417,71.437499 h 2.645832 l -1.322916,2.645829 z" /></g><g
       id="g283"
       transform="translate(74.083337,74.083337)"><path
         style="fill:none;fill-opacity:1;stroke:#000000;stroke-width:0.529167;stroke-dasharray:none"
         d="m 10.583333,68.791666 v 2.645833"
         id="path282" /><path
         id="path283"
         style="fill:#000000;stroke:none;stroke-width:0.529165"
         d="m 9.260417,71.437499 h 2.645832 l -1.322916,2.645829 z" /></g><g
       id="g285"
       transform="translate(84.666671,74.083337)"><path
         style="fill:none;fill-opacity:1;stroke:#000000;stroke-width:0.529167;stroke-dasharray:none"
         d="m 10.583333,68.791666 v 2.645833"
         id="path284" /><path
         id="path285"
         style="fill:#000000;stroke:none;stroke-width:0.529165"
         d="m 9.260417,71.437499 h 2.645832 l -1.322916,2.645829 z" /></g><g
       id="g287"
       transform="translate(95.250003,74.083337)"><path
         style="fill:none;fill-opacity:1;stroke:#000000;stroke-width:0.529167;stroke-dasharray:none"
         d="m 10.583333,68.791666 v 2.645833"
         id="path286" /><path
         id="path287"
         style="fill:#000000;stroke:none;stroke-width:0.529165"
         d="m 9.260417,71.437499 h 2.645832 l -1.322916,2.645829 z" /></g><rect
       style="fill:#ffffff;fill-opacity:1;stroke:#000000;stroke-width:0.529168;stroke-dasharray:none"
       id="rect287"
       width="105.83333"
       height="10.583397"
       x="5.2916698"
       y="166.68745"
       ry="0" /><g
       id="g289"
       transform="translate(0,92.604168)"><path
         style="fill:none;fill-opacity:1;stroke:#000000;stroke-width:0.529167;stroke-dasharray:none"
         d="m 10.583333,68.791666 v 2.645833"
         id="path288" /><path
         id="path289"
         style="fill:#000000;stroke:none;stroke-width:0.529165"
         d="m 9.260417,71.437499 h 2.645832 l -1.322916,2.645829 z" /></g><g
       id="g291"
       transform="translate(10.583333,92.604168)"><path
         style="fill:none;fill-opacity:1;stroke:#000000;stroke-width:0.529167;stroke-dasharray:none"
         d="m 10.583333,68.791666 v 2.645833"
         id="path290" /><path
         id="path291"
         style="fill:#000000;stroke:none;stroke-width:0.529165"
         d="m 9.260417,71.437499 h 2.645832 l -1.322916,2.645829 z" /></g><g
       id="g293"
       transform="translate(21.166667,92.604168)"><path
         style="fill:none;fill-opacity:1;stroke:#000000;stroke-width:0.529167;stroke-dasharray:none"
         d="m 10.583333,68.791666 v 2.645833"
         id="path292" /><path
         id="path293"
         style="fill:#000000;stroke:none;stroke-width:0.529165"
         d="m 9.260417,71.437499 h 2.645832 l -1.322916,2.645829 z" /></g><g
       id="g295"
       transform="translate(31.750001,92.604168)"><path
         style="fill:none;fill-opacity:1;stroke:#000000;stroke-width:0.529167;stroke-dasharray:none"
         d="m 10.583333,68.791666 v 2.645833"
         id="path294" /><path
         id="path295"
         style="fill:#000000;stroke:none;stroke-width:0.529165"
         d="m 9.260417,71.437499 h 2.645832 l -1.322916,2.645829 z" /></g><g
       id="g297"
       transform="translate(42.333335,92.604168)"><path
         style="fill:none;fill-opacity:1;stroke:#000000;stroke-width:0.529167;stroke-dasharray:none"
         d="m 10.583333,68.791666 v 2.645833"
         id="path296" /><path
         id="path297"
         style="fill:#000000;stroke:none;stroke-width:0.529165"
         d="m 9.260417,71.437499 h 2.645832 l -1.322916,2.645829 z" /></g><g
       id="g299"
       transform="translate(52.916669,92.604168)"><path
         style="fill:none;fill-opacity:1;stroke:#000000;stroke-width:0.529167;stroke-dasharray:none"
         d="m 10.583333,68.791666 v 2.645833"
         id="path298" /><path
         id="path299"
         style="fill:#000000;stroke:none;stroke-width:0.529165"
         d="m 9.260417,71.437499 h 2.645832 l -1.322916,2.645829 z" /></g><g
       id="g301"
       transform="translate(63.500003,92.604168)"><path
         style="fill:none;fill-opacity:1;stroke:#000000;stroke-width:0.529167;stroke-dasharray:none"
         d="m 10.583333,68.791666 v 2.645833"
         id="path300" /><path
         id="path301"
         style="fill:#000000;stroke:none;stroke-width:0.529165"
         d="m 9.260417,71.437499 h 2.645832 l -1.322916,2.645829 z" /></g><g
       id="g303"
       transform="translate(74.083337,92.604168)"><path
         style="fill:none;fill-opacity:1;stroke:#000000;stroke-width:0.529167;stroke-dasharray:none"
         d="m 10.583333,68.791666 v 2.645833"
         id="path302" /><path
         id="path303"
         style="fill:#000000;stroke:none;stroke-width:0.529165"
         d="m 9.260417,71.437499 h 2.645832 l -1.322916,2.645829 z" /></g><g
       id="g305"
       transform="translate(84.666671,92.604168)"><path
         style="fill:none;fill-opacity:1;stroke:#000000;stroke-width:0.529167;stroke-dasharray:none"
         d="m 10.583333,68.791666 v 2.645833"
         id="path304" /><path
         id="path305"
         style="fill:#000000;stroke:none;stroke-width:0.529165"
         d="m 9.260417,71.437499 h 2.645832 l -1.322916,2.645829 z" /></g><g
       id="g307"
       transform="translate(95.250003,92.604168)"><path
         style="fill:none;fill-opacity:1;stroke:#000000;stroke-width:0.529167;stroke-dasharray:none"
         d="m 10.583333,68.791666 v 2.645833"
         id="path306" /><path
         id="path307"
         style="fill:#000000;stroke:none;stroke-width:0.529165"
         d="m 9.260417,71.437499 h 2.645832 l -1.322916,2.645829 z" /></g><text
       xml:space="preserve"
       style="font-weight:bold;font-size:4.93889px;line-height:0.8;font-family:'Courier New';-inkscape-font-specification:'Courier New Bold';text-align:center;writing-mode:lr-tb;direction:ltr;text-anchor:middle;fill:#000000;stroke:none;stroke-width:0.529167"
       x="58.243301"
       y="173.50208"
       id="text307"><tspan
         id="tspan307"
         style="font-size:4.93889px;fill:#000000;stroke:none;stroke-width:0.529167"
         x="58.243301"
         y="173.50208">HiFiGAN</tspan></text><text
       xml:space="preserve"
       style="font-weight:bold;font-size:4.93889px;line-height:0.8;font-family:'Courier New';-inkscape-font-specification:'Courier New Bold';text-align:center;writing-mode:lr-tb;direction:ltr;text-anchor:middle;fill:#000000;stroke:none;stroke-width:0.529167"
       x="153.49332"
       y="91.481194"
       id="text308"><tspan
         id="tspan308"
         style="font-size:4.93889px;fill:#000000;stroke:none;stroke-width:0.529167"
         x="153.49332"
         y="91.481194">Coarse Semantic Units</tspan></text><text
       xml:space="preserve"
       style="font-weight:bold;font-size:4.93889px;line-height:0.8;font-family:'Courier New';-inkscape-font-specification:'Courier New Bold';text-align:center;writing-mode:lr-tb;direction:ltr;text-anchor:middle;fill:#000000;stroke:none;stroke-width:0.529167"
       x="153.49332"
       y="123.23119"
       id="text309"><tspan
         id="tspan309"
         style="font-size:4.93889px;fill:#000000;stroke:none;stroke-width:0.529167"
         x="153.49332"
         y="123.23119">HuBERT Discrete Units</tspan></text><text
       xml:space="preserve"
       style="font-weight:bold;font-size:4.93889px;line-height:0.8;font-family:'Courier New';-inkscape-font-specification:'Courier New Bold';text-align:center;writing-mode:lr-tb;direction:ltr;text-anchor:middle;fill:#000000;stroke:none;stroke-width:0.529167"
       x="153.49332"
       y="154.98122"
       id="text310"><tspan
         id="tspan310"
         style="font-size:4.93889px;fill:#000000;stroke:none;stroke-width:0.529167"
         x="153.49332"
         y="154.98122">Mel Spectrogram</tspan></text><g
       id="g311"
       transform="translate(0,108.47917)"><path
         style="fill:none;fill-opacity:1;stroke:#000000;stroke-width:0.529167;stroke-dasharray:none"
         d="m 10.583333,68.791666 v 2.645833"
         id="path310" /><path
         id="path311"
         style="fill:#000000;stroke:none;stroke-width:0.529165"
         d="m 9.260417,71.437499 h 2.645832 l -1.322916,2.645829 z" /></g><g
       id="g313"
       transform="translate(10.583333,108.47917)"><path
         style="fill:none;fill-opacity:1;stroke:#000000;stroke-width:0.529167;stroke-dasharray:none"
         d="m 10.583333,68.791666 v 2.645833"
         id="path312" /><path
         id="path313"
         style="fill:#000000;stroke:none;stroke-width:0.529165"
         d="m 9.260417,71.437499 h 2.645832 l -1.322916,2.645829 z" /></g><g
       id="g315"
       transform="translate(21.166667,108.47917)"><path
         style="fill:none;fill-opacity:1;stroke:#000000;stroke-width:0.529167;stroke-dasharray:none"
         d="m 10.583333,68.791666 v 2.645833"
         id="path314" /><path
         id="path315"
         style="fill:#000000;stroke:none;stroke-width:0.529165"
         d="m 9.260417,71.437499 h 2.645832 l -1.322916,2.645829 z" /></g><g
       id="g317"
       transform="translate(31.750001,108.47917)"><path
         style="fill:none;fill-opacity:1;stroke:#000000;stroke-width:0.529167;stroke-dasharray:none"
         d="m 10.583333,68.791666 v 2.645833"
         id="path316" /><path
         id="path317"
         style="fill:#000000;stroke:none;stroke-width:0.529165"
         d="m 9.260417,71.437499 h 2.645832 l -1.322916,2.645829 z" /></g><g
       id="g319"
       transform="translate(42.333335,108.47917)"><path
         style="fill:none;fill-opacity:1;stroke:#000000;stroke-width:0.529167;stroke-dasharray:none"
         d="m 10.583333,68.791666 v 2.645833"
         id="path318" /><path
         id="path319"
         style="fill:#000000;stroke:none;stroke-width:0.529165"
         d="m 9.260417,71.437499 h 2.645832 l -1.322916,2.645829 z" /></g><g
       id="g321"
       transform="translate(52.916669,108.47917)"><path
         style="fill:none;fill-opacity:1;stroke:#000000;stroke-width:0.529167;stroke-dasharray:none"
         d="m 10.583333,68.791666 v 2.645833"
         id="path320" /><path
         id="path321"
         style="fill:#000000;stroke:none;stroke-width:0.529165"
         d="m 9.260417,71.437499 h 2.645832 l -1.322916,2.645829 z" /></g><g
       id="g323"
       transform="translate(63.500003,108.47917)"><path
         style="fill:none;fill-opacity:1;stroke:#000000;stroke-width:0.529167;stroke-dasharray:none"
         d="m 10.583333,68.791666 v 2.645833"
         id="path322" /><path
         id="path323"
         style="fill:#000000;stroke:none;stroke-width:0.529165"
         d="m 9.260417,71.437499 h 2.645832 l -1.322916,2.645829 z" /></g><g
       id="g325"
       transform="translate(74.083337,108.47917)"><path
         style="fill:none;fill-opacity:1;stroke:#000000;stroke-width:0.529167;stroke-dasharray:none"
         d="m 10.583333,68.791666 v 2.645833"
         id="path324" /><path
         id="path325"
         style="fill:#000000;stroke:none;stroke-width:0.529165"
         d="m 9.260417,71.437499 h 2.645832 l -1.322916,2.645829 z" /></g><g
       id="g327"
       transform="translate(84.666671,108.47917)"><path
         style="fill:none;fill-opacity:1;stroke:#000000;stroke-width:0.529167;stroke-dasharray:none"
         d="m 10.583333,68.791666 v 2.645833"
         id="path326" /><path
         id="path327"
         style="fill:#000000;stroke:none;stroke-width:0.529165"
         d="m 9.260417,71.437499 h 2.645832 l -1.322916,2.645829 z" /></g><g
       id="g329"
       transform="translate(95.250003,108.47917)"><path
         style="fill:none;fill-opacity:1;stroke:#000000;stroke-width:0.529167;stroke-dasharray:none"
         d="m 10.583333,68.791666 v 2.645833"
         id="path328" /><path
         id="path329"
         style="fill:#000000;stroke:none;stroke-width:0.529165"
         d="m 9.260417,71.437499 h 2.645832 l -1.322916,2.645829 z" /></g><text
       xml:space="preserve"
       style="font-weight:bold;font-size:4.93889px;line-height:0.8;font-family:'Courier New';-inkscape-font-specification:'Courier New Bold';text-align:center;writing-mode:lr-tb;direction:ltr;text-anchor:middle;fill:#000000;stroke:none;stroke-width:0.529167"
       x="153.49332"
       y="191.54744"
       id="text329"><tspan
         id="tspan329"
         style="font-size:4.93889px;fill:#000000;stroke:none;stroke-width:0.529167"
         x="153.49332"
         y="191.54744">Waveform</tspan></text><rect
       style="fill:none;fill-opacity:1;stroke:#000000;stroke-width:0.529167;stroke-dasharray:none"
       id="rect329"
       width="2.6458333"
       height="2.6458333"
       x="9.2609463"
       y="150.8125" /><rect
       style="fill:none;fill-opacity:1;stroke:#000000;stroke-width:0.529167;stroke-dasharray:none"
       id="rect330"
       width="2.6458333"
       height="2.6458333"
       x="9.2609463"
       y="153.4583" /><rect
       style="fill:none;fill-opacity:1;stroke:#000000;stroke-width:0.529167;stroke-dasharray:none"
       id="rect331"
       width="2.6458333"
       height="2.6458333"
       x="9.2609463"
       y="156.1041" /><rect
       style="fill:none;fill-opacity:1;stroke:#000000;stroke-width:0.529167;stroke-dasharray:none"
       id="rect332"
       width="2.6458333"
       height="2.6458333"
       x="9.2609463"
       y="150.8125" /><rect
       style="fill:none;fill-opacity:1;stroke:#000000;stroke-width:0.529167;stroke-dasharray:none"
       id="rect333"
       width="2.6458333"
       height="2.6458333"
       x="9.2609463"
       y="153.4583" /><rect
       style="fill:none;fill-opacity:1;stroke:#000000;stroke-width:0.529167;stroke-dasharray:none"
       id="rect334"
       width="2.6458333"
       height="2.6458333"
       x="9.2609463"
       y="156.1041" /><rect
       style="fill:none;fill-opacity:1;stroke:#000000;stroke-width:0.529167;stroke-dasharray:none"
       id="rect335"
       width="2.6458333"
       height="2.6458333"
       x="19.84428"
       y="150.8125" /><rect
       style="fill:none;fill-opacity:1;stroke:#000000;stroke-width:0.529167;stroke-dasharray:none"
       id="rect336"
       width="2.6458333"
       height="2.6458333"
       x="19.84428"
       y="153.4583" /><rect
       style="fill:none;fill-opacity:1;stroke:#000000;stroke-width:0.529167;stroke-dasharray:none"
       id="rect337"
       width="2.6458333"
       height="2.6458333"
       x="19.84428"
       y="156.1041" /><rect
       style="fill:none;fill-opacity:1;stroke:#000000;stroke-width:0.529167;stroke-dasharray:none"
       id="rect338"
       width="2.6458333"
       height="2.6458333"
       x="19.84428"
       y="150.8125" /><rect
       style="fill:none;fill-opacity:1;stroke:#000000;stroke-width:0.529167;stroke-dasharray:none"
       id="rect339"
       width="2.6458333"
       height="2.6458333"
       x="19.84428"
       y="153.4583" /><rect
       style="fill:none;fill-opacity:1;stroke:#000000;stroke-width:0.529167;stroke-dasharray:none"
       id="rect340"
       width="2.6458333"
       height="2.6458333"
       x="19.84428"
       y="156.1041" /><rect
       style="fill:none;fill-opacity:1;stroke:#000000;stroke-width:0.529167;stroke-dasharray:none"
       id="rect341"
       width="2.6458333"
       height="2.6458333"
       x="30.427612"
       y="150.8125" /><rect
       style="fill:none;fill-opacity:1;stroke:#000000;stroke-width:0.529167;stroke-dasharray:none"
       id="rect342"
       width="2.6458333"
       height="2.6458333"
       x="30.427612"
       y="153.4583" /><rect
       style="fill:none;fill-opacity:1;stroke:#000000;stroke-width:0.529167;stroke-dasharray:none"
       id="rect343"
       width="2.6458333"
       height="2.6458333"
       x="30.427612"
       y="156.1041" /><rect
       style="fill:none;fill-opacity:1;stroke:#000000;stroke-width:0.529167;stroke-dasharray:none"
       id="rect344"
       width="2.6458333"
       height="2.6458333"
       x="30.427612"
       y="150.8125" /><rect
       style="fill:none;fill-opacity:1;stroke:#000000;stroke-width:0.529167;stroke-dasharray:none"
       id="rect345"
       width="2.6458333"
       height="2.6458333"
       x="30.427612"
       y="153.4583" /><rect
       style="fill:none;fill-opacity:1;stroke:#000000;stroke-width:0.529167;stroke-dasharray:none"
       id="rect346"
       width="2.6458333"
       height="2.6458333"
       x="30.427612"
       y="156.1041" /><rect
       style="fill:none;fill-opacity:1;stroke:#000000;stroke-width:0.529167;stroke-dasharray:none"
       id="rect347"
       width="2.6458333"
       height="2.6458333"
       x="41.010948"
       y="150.8125" /><rect
       style="fill:none;fill-opacity:1;stroke:#000000;stroke-width:0.529167;stroke-dasharray:none"
       id="rect348"
       width="2.6458333"
       height="2.6458333"
       x="41.010948"
       y="153.4583" /><rect
       style="fill:none;fill-opacity:1;stroke:#000000;stroke-width:0.529167;stroke-dasharray:none"
       id="rect349"
       width="2.6458333"
       height="2.6458333"
       x="41.010948"
       y="156.1041" /><rect
       style="fill:none;fill-opacity:1;stroke:#000000;stroke-width:0.529167;stroke-dasharray:none"
       id="rect350"
       width="2.6458333"
       height="2.6458333"
       x="41.010948"
       y="150.8125" /><rect
       style="fill:none;fill-opacity:1;stroke:#000000;stroke-width:0.529167;stroke-dasharray:none"
       id="rect351"
       width="2.6458333"
       height="2.6458333"
       x="41.010948"
       y="153.4583" /><rect
       style="fill:none;fill-opacity:1;stroke:#000000;stroke-width:0.529167;stroke-dasharray:none"
       id="rect352"
       width="2.6458333"
       height="2.6458333"
       x="41.010948"
       y="156.1041" /><rect
       style="fill:none;fill-opacity:1;stroke:#000000;stroke-width:0.529167;stroke-dasharray:none"
       id="rect353"
       width="2.6458333"
       height="2.6458333"
       x="51.594284"
       y="150.8125" /><rect
       style="fill:none;fill-opacity:1;stroke:#000000;stroke-width:0.529167;stroke-dasharray:none"
       id="rect354"
       width="2.6458333"
       height="2.6458333"
       x="51.594284"
       y="153.4583" /><rect
       style="fill:none;fill-opacity:1;stroke:#000000;stroke-width:0.529167;stroke-dasharray:none"
       id="rect355"
       width="2.6458333"
       height="2.6458333"
       x="51.594284"
       y="156.1041" /><rect
       style="fill:none;fill-opacity:1;stroke:#000000;stroke-width:0.529167;stroke-dasharray:none"
       id="rect356"
       width="2.6458333"
       height="2.6458333"
       x="51.594284"
       y="150.8125" /><rect
       style="fill:none;fill-opacity:1;stroke:#000000;stroke-width:0.529167;stroke-dasharray:none"
       id="rect357"
       width="2.6458333"
       height="2.6458333"
       x="51.594284"
       y="153.4583" /><rect
       style="fill:none;fill-opacity:1;stroke:#000000;stroke-width:0.529167;stroke-dasharray:none"
       id="rect358"
       width="2.6458333"
       height="2.6458333"
       x="51.594284"
       y="156.1041" /><rect
       style="fill:none;fill-opacity:1;stroke:#000000;stroke-width:0.529167;stroke-dasharray:none"
       id="rect359"
       width="2.6458333"
       height="2.6458333"
       x="62.17762"
       y="150.8125" /><rect
       style="fill:none;fill-opacity:1;stroke:#000000;stroke-width:0.529167;stroke-dasharray:none"
       id="rect360"
       width="2.6458333"
       height="2.6458333"
       x="62.17762"
       y="153.4583" /><rect
       style="fill:none;fill-opacity:1;stroke:#000000;stroke-width:0.529167;stroke-dasharray:none"
       id="rect361"
       width="2.6458333"
       height="2.6458333"
       x="62.17762"
       y="156.1041" /><rect
       style="fill:none;fill-opacity:1;stroke:#000000;stroke-width:0.529167;stroke-dasharray:none"
       id="rect362"
       width="2.6458333"
       height="2.6458333"
       x="62.17762"
       y="150.8125" /><rect
       style="fill:none;fill-opacity:1;stroke:#000000;stroke-width:0.529167;stroke-dasharray:none"
       id="rect363"
       width="2.6458333"
       height="2.6458333"
       x="62.17762"
       y="153.4583" /><rect
       style="fill:none;fill-opacity:1;stroke:#000000;stroke-width:0.529167;stroke-dasharray:none"
       id="rect364"
       width="2.6458333"
       height="2.6458333"
       x="62.17762"
       y="156.1041" /><rect
       style="fill:none;fill-opacity:1;stroke:#000000;stroke-width:0.529167;stroke-dasharray:none"
       id="rect365"
       width="2.6458333"
       height="2.6458333"
       x="72.760948"
       y="150.8125" /><rect
       style="fill:none;fill-opacity:1;stroke:#000000;stroke-width:0.529167;stroke-dasharray:none"
       id="rect366"
       width="2.6458333"
       height="2.6458333"
       x="72.760948"
       y="153.4583" /><rect
       style="fill:none;fill-opacity:1;stroke:#000000;stroke-width:0.529167;stroke-dasharray:none"
       id="rect367"
       width="2.6458333"
       height="2.6458333"
       x="72.760948"
       y="156.1041" /><rect
       style="fill:none;fill-opacity:1;stroke:#000000;stroke-width:0.529167;stroke-dasharray:none"
       id="rect368"
       width="2.6458333"
       height="2.6458333"
       x="72.760948"
       y="150.8125" /><rect
       style="fill:none;fill-opacity:1;stroke:#000000;stroke-width:0.529167;stroke-dasharray:none"
       id="rect369"
       width="2.6458333"
       height="2.6458333"
       x="72.760948"
       y="153.4583" /><rect
       style="fill:none;fill-opacity:1;stroke:#000000;stroke-width:0.529167;stroke-dasharray:none"
       id="rect370"
       width="2.6458333"
       height="2.6458333"
       x="72.760948"
       y="156.1041" /><rect
       style="fill:none;fill-opacity:1;stroke:#000000;stroke-width:0.529167;stroke-dasharray:none"
       id="rect371"
       width="2.6458333"
       height="2.6458333"
       x="83.344276"
       y="150.8125" /><rect
       style="fill:none;fill-opacity:1;stroke:#000000;stroke-width:0.529167;stroke-dasharray:none"
       id="rect372"
       width="2.6458333"
       height="2.6458333"
       x="83.344276"
       y="153.4583" /><rect
       style="fill:none;fill-opacity:1;stroke:#000000;stroke-width:0.529167;stroke-dasharray:none"
       id="rect373"
       width="2.6458333"
       height="2.6458333"
       x="83.344276"
       y="156.1041" /><rect
       style="fill:none;fill-opacity:1;stroke:#000000;stroke-width:0.529167;stroke-dasharray:none"
       id="rect374"
       width="2.6458333"
       height="2.6458333"
       x="83.344276"
       y="150.8125" /><rect
       style="fill:none;fill-opacity:1;stroke:#000000;stroke-width:0.529167;stroke-dasharray:none"
       id="rect375"
       width="2.6458333"
       height="2.6458333"
       x="83.344276"
       y="153.4583" /><rect
       style="fill:none;fill-opacity:1;stroke:#000000;stroke-width:0.529167;stroke-dasharray:none"
       id="rect376"
       width="2.6458333"
       height="2.6458333"
       x="83.344276"
       y="156.1041" /><rect
       style="fill:none;fill-opacity:1;stroke:#000000;stroke-width:0.529167;stroke-dasharray:none"
       id="rect377"
       width="2.6458333"
       height="2.6458333"
       x="93.927605"
       y="150.8125" /><rect
       style="fill:none;fill-opacity:1;stroke:#000000;stroke-width:0.529167;stroke-dasharray:none"
       id="rect378"
       width="2.6458333"
       height="2.6458333"
       x="93.927605"
       y="153.4583" /><rect
       style="fill:none;fill-opacity:1;stroke:#000000;stroke-width:0.529167;stroke-dasharray:none"
       id="rect379"
       width="2.6458333"
       height="2.6458333"
       x="93.927605"
       y="156.1041" /><rect
       style="fill:none;fill-opacity:1;stroke:#000000;stroke-width:0.529167;stroke-dasharray:none"
       id="rect380"
       width="2.6458333"
       height="2.6458333"
       x="93.927605"
       y="150.8125" /><rect
       style="fill:none;fill-opacity:1;stroke:#000000;stroke-width:0.529167;stroke-dasharray:none"
       id="rect381"
       width="2.6458333"
       height="2.6458333"
       x="93.927605"
       y="153.4583" /><rect
       style="fill:none;fill-opacity:1;stroke:#000000;stroke-width:0.529167;stroke-dasharray:none"
       id="rect382"
       width="2.6458333"
       height="2.6458333"
       x="93.927605"
       y="156.1041" /><rect
       style="fill:none;fill-opacity:1;stroke:#000000;stroke-width:0.529167;stroke-dasharray:none"
       id="rect383"
       width="2.6458333"
       height="2.6458333"
       x="104.51093"
       y="150.8125" /><rect
       style="fill:none;fill-opacity:1;stroke:#000000;stroke-width:0.529167;stroke-dasharray:none"
       id="rect384"
       width="2.6458333"
       height="2.6458333"
       x="104.51093"
       y="153.4583" /><rect
       style="fill:none;fill-opacity:1;stroke:#000000;stroke-width:0.529167;stroke-dasharray:none"
       id="rect385"
       width="2.6458333"
       height="2.6458333"
       x="104.51093"
       y="156.1041" /><rect
       style="fill:none;fill-opacity:1;stroke:#000000;stroke-width:0.529167;stroke-dasharray:none"
       id="rect386"
       width="2.6458333"
       height="2.6458333"
       x="104.51093"
       y="150.8125" /><rect
       style="fill:none;fill-opacity:1;stroke:#000000;stroke-width:0.529167;stroke-dasharray:none"
       id="rect387"
       width="2.6458333"
       height="2.6458333"
       x="104.51093"
       y="153.4583" /><rect
       style="fill:none;fill-opacity:1;stroke:#000000;stroke-width:0.529167;stroke-dasharray:none"
       id="rect388"
       width="2.6458333"
       height="2.6458333"
       x="104.51093"
       y="156.1041" /><circle
       style="fill:#deaa87;fill-opacity:1;stroke:#000000;stroke-width:0.529167;stroke-dasharray:none"
       id="circle415"
       cx="31.749998"
       cy="121.70824"
       r="2.6458333" /><circle
       style="fill:#deaa87;fill-opacity:1;stroke:#000000;stroke-width:0.529167;stroke-dasharray:none"
       id="circle416"
       cx="42.333332"
       cy="121.70824"
       r="2.6458333" /><circle
       style="fill:#eeffaa;fill-opacity:1;stroke:#000000;stroke-width:0.529167;stroke-dasharray:none"
       id="circle417"
       cx="63.500004"
       cy="121.70824"
       r="2.6458333" /><circle
       style="fill:#afdde9;fill-opacity:1;stroke:#000000;stroke-width:0.529167;stroke-dasharray:none"
       id="circle418"
       cx="105.83332"
       cy="121.70824"
       r="2.6458333" /><path
       style="fill:#000000;stroke-width:0.999991"
       d="m 64.332423,195.81585 c 0.03182,-0.005 0.07245,-0.0168 0.0908,-0.0266 0.03134,-0.017 0.0333,-0.30508 0.0345,-5.28835 0.0014,-4.64896 -0.0022,-5.27242 -0.02717,-5.28861 -0.07783,-0.0502 -0.387012,-0.0533 -0.50435,-0.006 -0.03231,0.0132 -0.03427,0.25536 -0.04185,5.17811 -0.0098,5.8462 -0.0098,5.30075 0.0073,5.35695 0.01227,0.0377 0.01957,0.0451 0.06903,0.0601 0.09008,0.0276 0.240843,0.033 0.372279,0.0136 z m 12.106677,-0.2987 c 0.0279,-0.006 0.06559,-0.017 0.08396,-0.0255 0.03157,-0.0145 0.0333,-0.28153 0.03427,-4.98855 7.35e-4,-4.27845 -0.0025,-4.97574 -0.02619,-4.99079 -0.06045,-0.039 -0.227628,-0.0543 -0.385765,-0.0355 -0.07196,0.008 -0.09668,0.0151 -0.126786,0.0333 -0.03721,0.0225 -0.03744,0.0759 -0.03769,4.98701 -9.8e-5,2.73033 0.0048,4.97005 0.01227,4.97715 0.01957,0.0213 0.100111,0.0459 0.165945,0.0513 0.08835,0.007 0.221018,0.003 0.279981,-0.008 z m -29.403406,-0.0371 c 0.04431,-0.006 0.08567,-0.017 0.104509,-0.0277 0.0284,-0.0161 0.03109,-0.42326 0.03231,-4.95119 7.34e-4,-3.0844 -0.0049,-4.93837 -0.01713,-4.94628 -0.03549,-0.0249 -0.157623,-0.0462 -0.26314,-0.0462 -0.08835,0 -0.198743,0.0159 -0.242556,0.035 l -0.04234,0.0184 -7.33e-4,4.93693 c -7.35e-4,4.91178 -6.12e-4,4.93703 0.03721,4.95436 0.07538,0.0344 0.248013,0.0462 0.391466,0.0265 z m 15.557939,-0.22147 c 0.03623,-0.006 0.08126,-0.0176 0.100112,-0.0271 0.03254,-0.017 0.03427,-0.22291 0.03548,-4.72982 7.34e-4,-2.91996 -0.0049,-4.71686 -0.01713,-4.72464 -0.01958,-0.0137 -0.08493,-0.0312 -0.150527,-0.0403 -0.109402,-0.0152 -0.294347,-3.8e-4 -0.355928,0.0282 -0.0328,0.0153 -0.0345,0.20762 -0.03794,4.5337 -0.0022,2.48475 -0.0073,4.57117 -0.01468,4.63649 -0.01227,0.14335 0.0049,0.27532 0.04063,0.29523 0.06193,0.0348 0.258514,0.0487 0.399249,0.0283 z m -12.132002,-0.20413 c 0.03402,-0.005 0.08346,-0.0134 0.109898,-0.0212 l 0.04798,-0.0141 0.0098,-4.48016 c 0.0049,-2.46411 0.0049,-4.49863 -0.0014,-4.52118 -0.0098,-0.039 -0.01468,-0.0419 -0.08126,-0.0583 -0.06364,-0.0156 -0.08126,-0.0172 -0.187485,-0.0172 -0.135347,0 -0.206576,0.008 -0.259003,0.0329 -0.03427,0.0155 -0.03525,0.15812 -0.03573,4.52397 -5.13e-4,4.48256 -2.93e-4,4.508 0.03744,4.52539 0.04137,0.0189 0.15787,0.0365 0.245078,0.0366 0.02938,5e-5 0.08126,-0.003 0.115275,-0.007 z m 17.285249,-0.35111 c 0.03402,-0.005 0.08346,-0.0134 0.109899,-0.0212 l 0.04798,-0.0141 0.0048,-4.16021 c 0.0025,-3.10257 -5.88e-4,-4.16385 -0.01713,-4.1745 -0.08102,-0.053 -0.408502,-0.0582 -0.510077,-0.008 -0.03377,0.0167 -0.035,0.16318 -0.035,4.17398 0,4.14748 9.9e-5,4.15679 0.03843,4.17423 0.07098,0.0324 0.225914,0.0451 0.360726,0.0296 z m -18.967305,-0.10638 c 0.03377,-0.006 0.0749,-0.017 0.09129,-0.0256 0.02667,-0.0139 0.02986,-0.41986 0.02961,-4.07309 -4.8e-5,-3.96078 -7.1e-4,-4.05797 -0.03623,-4.07349 -0.09766,-0.0431 -0.385273,-0.0438 -0.48183,-8.6e-4 l -0.03867,0.017 -7.4e-5,4.05758 c -7.3e-5,3.65323 0.0025,4.05915 0.02961,4.07308 0.04333,0.0225 0.134864,0.0357 0.248747,0.0357 0.06145,0 0.118226,-0.005 0.157626,-0.0101 z m 10.355789,-0.36656 c 0.04479,-0.006 0.08567,-0.017 0.105006,-0.028 0.02913,-0.0165 0.03109,-0.29733 0.02667,-3.70994 l -0.0049,-3.69209 -0.04798,-0.014 c -0.05678,-0.0165 -0.150527,-0.0281 -0.224933,-0.028 -0.08983,1.8e-4 -0.211226,0.0182 -0.246447,0.0365 -0.03011,0.0158 -0.03231,0.25906 -0.03231,3.70512 -2.4e-5,3.59137 7.09e-4,3.68875 0.03598,3.70474 0.07319,0.0336 0.247597,0.045 0.389288,0.0256 z m -43.265617,-0.0469 c 0.0395,-0.002 0.09643,-0.0132 0.12965,-0.0232 l 0.05921,-0.0182 v -3.6434 -3.64339 l -0.07457,-0.0202 c -0.06971,-0.0187 -0.08193,-0.0201 -0.187266,-0.0199 -0.131432,2e-5 -0.219694,0.0119 -0.265445,0.0357 -0.02682,0.0139 -0.02929,0.37556 -0.02493,3.65577 l 0.0049,3.64028 0.0569,0.0159 c 0.08273,0.0232 0.179238,0.0299 0.301633,0.0207 z m 70.946926,-0.0521 c 0.03206,-0.006 0.07,-0.0188 0.08468,-0.0283 0.02203,-0.0145 0.02667,-0.55752 0.02667,-3.60476 -4.8e-5,-3.40531 -0.0014,-3.58855 -0.03353,-3.60553 -0.100843,-0.0538 -0.429111,-0.0503 -0.51179,0.006 -0.02815,0.0188 -0.03059,0.33022 -0.03036,3.60285 4.16e-4,3.53681 7.11e-4,3.58247 0.03769,3.60431 0.06878,0.0407 0.282428,0.0538 0.426566,0.0263 z m -44.963181,-0.11888 c 0.04063,-0.006 0.08713,-0.0187 0.10353,-0.028 0.02644,-0.0151 0.02913,-0.37332 0.02471,-3.49279 l -0.0049,-3.47602 -0.06951,-0.017 c -0.127766,-0.0314 -0.30634,-0.0291 -0.419371,0.006 l -0.05849,0.018 v 3.47548 c 0,3.30051 0.0017,3.47624 0.03353,3.49114 0.03892,0.0181 0.158358,0.0348 0.251856,0.0348 0.03549,7e-5 0.0979,-0.005 0.138532,-0.0112 z m 51.863852,-0.0294 c 0.03185,-0.005 0.07275,-0.0169 0.09131,-0.0267 0.03185,-0.0169 0.03345,-0.19305 0.03345,-3.45611 2.9e-5,-3.14678 -0.0029,-3.43971 -0.03082,-3.4557 -0.04864,-0.0276 -0.140533,-0.04 -0.277253,-0.0374 -0.127531,0.002 -0.195562,0.0149 -0.241828,0.0439 -0.02206,0.0141 -0.02644,0.55275 -0.02644,3.44794 0,3.1196 0.0029,3.43319 0.03038,3.45176 0.06296,0.0424 0.257297,0.0571 0.420883,0.0321 z m -27.665687,-0.0774 c 0.03672,-0.006 0.082,-0.0174 0.100593,-0.0271 0.03182,-0.0168 0.03353,-0.18898 0.03353,-3.3784 2.3e-5,-3.06383 -0.0025,-3.36231 -0.03059,-3.37809 -0.0421,-0.0238 -0.172065,-0.0407 -0.287322,-0.037 -0.104274,0.003 -0.170107,0.0142 -0.214653,0.0361 -0.03254,0.0159 -0.03402,0.17162 -0.03402,3.38086 0,3.33108 3.67e-4,3.36429 0.03769,3.37906 0.08371,0.0332 0.25756,0.044 0.394845,0.0247 z m 29.361578,-0.0597 c 0.02863,-0.005 0.07348,-0.0136 0.09992,-0.0212 l 0.04792,-0.0138 0.0043,-3.30303 c 0.0043,-3.13714 0.0029,-3.30393 -0.02892,-3.32075 -0.05361,-0.0282 -0.124025,-0.0391 -0.254508,-0.0391 -0.130161,0 -0.200938,0.0112 -0.254419,0.0391 -0.03185,0.0168 -0.0336,0.18589 -0.0336,3.31212 0,3.12613 0.0014,3.29534 0.0336,3.31239 0.06807,0.0364 0.252316,0.0527 0.385033,0.0342 z m 6.931855,-0.13564 c 0.0457,-0.006 0.0793,-0.0155 0.10328,-0.0298 0.0345,-0.0204 0.0355,-0.11687 0.0359,-3.1812 3.6e-4,-2.99842 -0.002,-3.16107 -0.0333,-3.17812 -0.10328,-0.0553 -0.40559,-0.0553 -0.50887,0 -0.0319,0.017 -0.0336,0.17973 -0.0336,3.17649 0,2.2247 0.005,3.16284 0.0196,3.17309 0.0247,0.0175 0.0903,0.0374 0.14272,0.0432 0.0652,0.007 0.20193,0.006 0.27321,-0.005 z m -62.208139,-0.007 c 0.03377,-0.006 0.0749,-0.017 0.09129,-0.0256 0.02667,-0.0139 0.02961,-0.33304 0.02961,-3.17977 l -7.4e-5,-3.16428 -0.03867,-0.017 c -0.100345,-0.0443 -0.40045,-0.042 -0.488368,0.005 -0.02667,0.0139 -0.02986,0.33151 -0.02986,3.17867 -5.1e-5,2.84924 0.0025,3.16475 0.02986,3.17871 0.04333,0.0226 0.134865,0.0357 0.248822,0.0357 0.06143,0 0.118226,-0.005 0.15738,-0.0101 z m -22.463389,-0.19409 c 0.03035,-0.005 0.06829,-0.0145 0.08444,-0.023 0.02595,-0.0136 0.02913,-0.34098 0.02913,-2.98948 v -2.97435 l -0.05947,-0.0182 c -0.133638,-0.0409 -0.379424,-0.0339 -0.470743,0.0138 -0.0404,0.021 -0.0404,5.941 0,5.96198 0.07587,0.0394 0.253325,0.052 0.416578,0.0293 z m 27.651391,-0.0276 c 0.02447,-0.003 0.06045,-0.0137 0.08102,-0.0228 0.03696,-0.0163 0.03721,-0.0545 0.03721,-2.95973 0,-2.87058 -8.57e-4,-2.94369 -0.03598,-2.9592 -0.10353,-0.0456 -0.402679,-0.0434 -0.49319,0.005 -0.02961,0.0154 -0.03182,0.22666 -0.03206,2.95551 -9.9e-5,2.71281 0.0023,2.94018 0.03134,2.95528 0.07146,0.0371 0.257363,0.0494 0.411463,0.0272 z m 46.652646,-0.0146 c 0.03593,-0.006 0.08151,-0.017 0.100798,-0.027 0.03404,-0.0174 0.03521,-0.11558 0.03521,-2.937 0,-2.46121 -0.0043,-2.92161 -0.02644,-2.93562 -0.04573,-0.0289 -0.114238,-0.0415 -0.237913,-0.0438 -0.09174,-0.002 -0.121396,-4e-5 -0.177448,0.0101 -0.03696,0.007 -0.08225,0.0203 -0.100798,0.0301 -0.03185,0.017 -0.0336,0.16811 -0.0336,2.93381 -3e-5,2.0528 0.0043,2.92016 0.01957,2.93039 0.02469,0.0175 0.09014,0.0374 0.142725,0.0432 0.06632,0.008 0.208535,0.006 0.276843,-0.005 z m -70.873965,-0.20235 c 0.04823,-0.006 0.09251,-0.0161 0.110382,-0.0255 0.02717,-0.0142 0.03011,-0.27721 0.03011,-2.7404 v -2.72477 l -0.03917,-0.017 c -0.02545,-0.0112 -0.06903,-0.0201 -0.124581,-0.0258 -0.143425,-0.0147 -0.279733,-0.003 -0.35556,0.0304 -0.03696,0.0163 -0.03746,0.0495 -0.03746,2.73695 -4.8e-5,2.47172 0.0025,2.72207 0.03036,2.73773 0.0345,0.0196 0.157135,0.0386 0.248063,0.0384 0.03182,-5e-5 0.09374,-0.005 0.138049,-0.0101 z m 62.248528,-0.0366 c 0.03501,-0.006 0.07613,-0.0185 0.09129,-0.0282 0.02448,-0.0154 0.02766,-0.37745 0.02766,-2.70101 0,-2.4534 -0.0025,-2.68469 -0.03083,-2.70068 -0.07758,-0.044 -0.336396,-0.0535 -0.462422,-0.017 -0.02203,0.007 -0.05116,0.0186 -0.0624,0.0266 -0.01468,0.0101 -0.01958,0.80807 -0.01958,2.69286 3.92e-4,2.59174 0.0014,2.67897 0.03598,2.69928 0.02203,0.0137 0.05826,0.024 0.100345,0.0296 0.09105,0.012 0.241822,0.0113 0.320634,-8.6e-4 z m -55.314881,-0.0616 c 0.03377,-0.006 0.0749,-0.017 0.09129,-0.0256 0.02667,-0.0138 0.02986,-0.28084 0.02961,-2.64272 -7.3e-5,-2.62606 -9.8e-5,-2.62728 -0.03892,-2.64438 -0.09815,-0.0432 -0.387672,-0.0416 -0.484524,0.002 -0.03206,0.0146 -0.03377,0.14756 -0.03353,2.6422 9.7e-5,2.35996 0.0025,2.62833 0.02986,2.64221 0.04333,0.0225 0.134865,0.0357 0.2487,0.0357 0.06143,0 0.118225,-0.005 0.157624,-0.0101 z m 6.880656,-0.0601 c 0.04576,-0.006 0.09251,-0.0151 0.115771,-0.025 l 0.03892,-0.0169 -0.0049,-2.56924 -0.0049,-2.56925 -0.05678,-0.016 c -0.137305,-0.0385 -0.407108,-0.0277 -0.47302,0.0188 -0.0098,0.008 -0.01713,1.04969 -0.01713,2.57367 -2.69e-4,2.41733 0.0016,2.56217 0.03279,2.57641 0.03769,0.0172 0.162521,0.0357 0.240598,0.0357 0.02888,0 0.08689,-0.005 0.129226,-0.008 z m 53.620833,-0.0213 c 0.0279,-0.006 0.06559,-0.018 0.0842,-0.0276 0.03182,-0.0168 0.03353,-0.14974 0.03353,-2.55824 0,-2.40835 -0.0014,-2.54146 -0.03353,-2.5586 -0.09619,-0.0519 -0.416677,-0.0507 -0.505206,8.6e-4 -0.03573,0.0212 -0.03646,0.0776 -0.03696,2.55962 -4.16e-4,2.44648 7.1e-4,2.53868 0.0345,2.55602 0.07319,0.0376 0.297309,0.0521 0.423312,0.0272 z m 12.08503,-0.0958 c 0.0359,-0.007 0.0803,-0.0198 0.0989,-0.0297 0.0319,-0.017 0.0334,-0.14539 0.0334,-2.46038 0,-2.31508 -0.002,-2.44333 -0.0334,-2.46012 -0.0536,-0.0282 -0.12403,-0.0391 -0.25444,-0.0391 -0.13016,0 -0.20093,0.0112 -0.25445,0.0391 -0.0319,0.0168 -0.0336,0.14504 -0.0336,2.46012 0,2.31499 9.7e-4,2.44336 0.0336,2.46038 0.0482,0.0258 0.14419,0.0414 0.25445,0.0414 0.0619,0 0.11088,-0.005 0.15567,-0.0118 z m -22.449116,-0.0632 c 0.04772,-0.008 0.07784,-0.0194 0.09154,-0.0322 0.01468,-0.0137 0.01958,-0.71007 0.01468,-2.40492 -0.0048,-2.37629 -0.0048,-2.38568 -0.04406,-2.39964 -0.113815,-0.0416 -0.377492,-0.0393 -0.483912,0.005 -0.0333,0.0137 -0.0345,0.10938 -0.0345,2.40545 0,2.29609 0.0014,2.3918 0.0345,2.40545 0.08689,0.0357 0.287272,0.0458 0.42113,0.0214 z m 29.367126,-0.0484 c 0.0297,-0.006 0.0685,-0.0151 0.0863,-0.0219 0.0305,-0.0117 0.033,-0.16199 0.0381,-2.34376 0.003,-1.57358 -7.3e-4,-2.33734 -0.0146,-2.34968 -0.0102,-0.0101 -0.0457,-0.025 -0.0775,-0.0332 -0.047,-0.0121 -0.0789,-0.0153 -0.16838,-0.017 -0.0923,-0.002 -0.12169,-6e-5 -0.1777,0.0101 -0.037,0.007 -0.0823,0.0202 -0.1008,0.0301 -0.0319,0.017 -0.0336,0.13982 -0.0328,2.34936 7.1e-4,2.21503 0.002,2.33224 0.0345,2.34844 0.0196,0.008 0.0592,0.0215 0.0906,0.027 0.0758,0.0134 0.24718,0.0137 0.32177,3.8e-4 z m -17.281504,-0.16535 c 0.03185,-0.005 0.07275,-0.0169 0.09131,-0.0265 0.03185,-0.017 0.0336,-0.13219 0.0336,-2.18673 1.5e-5,-2.09062 -0.0014,-2.16944 -0.03505,-2.18642 -0.05186,-0.0259 -0.142432,-0.0375 -0.276756,-0.0351 -0.123588,0.002 -0.192131,0.0147 -0.237899,0.0438 -0.02206,0.014 -0.02644,0.35869 -0.02644,2.17873 0,2.14152 3.79e-4,2.16231 0.03798,2.18311 0.07436,0.0412 0.25166,0.0538 0.413477,0.0294 z m 8.627744,-0.0248 c 0.04577,-0.006 0.07928,-0.0155 0.10328,-0.0297 0.03448,-0.0204 0.03554,-0.0895 0.03592,-2.15881 3.87e-4,-2.02506 -9.65e-4,-2.13871 -0.03303,-2.15574 -0.0196,-0.0101 -0.06383,-0.0233 -0.100799,-0.0301 -0.05533,-0.0101 -0.08546,-0.0119 -0.168871,-0.0101 -0.118037,0.002 -0.190917,0.0149 -0.239144,0.0403 -0.03187,0.0168 -0.03361,0.13041 -0.03361,2.15546 0,2.02494 0.0019,2.1387 0.03361,2.15572 0.07069,0.0378 0.249245,0.0523 0.402829,0.0329 z m -67.406818,-0.0584 c 0.0416,-0.006 0.08885,-0.0172 0.105005,-0.0256 0.02595,-0.0136 0.02913,-0.24506 0.02913,-2.10654 v -2.09136 l -0.05947,-0.0182 c -0.07025,-0.0214 -0.176227,-0.0314 -0.278707,-0.0264 -0.0957,0.005 -0.218324,0.0371 -0.220038,0.0577 -6.12e-4,0.008 -0.0016,0.94926 -0.0022,2.09135 -0.0012,2.01851 -1.73e-4,2.07702 0.03476,2.09329 0.04088,0.0189 0.158113,0.0357 0.252714,0.0358 0.03476,5e-5 0.09717,-0.005 0.138779,-0.0101 z m 79.513708,-0.0288 c 0.0274,-0.005 0.0663,-0.0133 0.0865,-0.0212 0.0358,-0.0142 0.0365,-0.0608 0.0416,-2.0696 0.005,-1.86754 0.002,-2.05714 -0.0253,-2.0769 -0.0406,-0.0288 -0.12461,-0.0428 -0.2577,-0.0428 -0.12433,0 -0.2034,0.0117 -0.2522,0.0374 -0.0358,0.0187 -0.0365,0.0634 -0.0365,2.07243 0,1.86724 0.003,2.05485 0.0305,2.0706 0.0374,0.0212 0.0638,0.0274 0.1564,0.0362 0.0774,0.008 0.17501,0.006 0.25665,-0.006 z m -55.316621,-0.0432 c 0.04479,-0.006 0.08567,-0.017 0.105005,-0.028 0.02913,-0.0165 0.03109,-0.17394 0.02667,-2.03691 l -0.0049,-2.01905 -0.04798,-0.014 c -0.05678,-0.0165 -0.150526,-0.0281 -0.224933,-0.028 -0.08689,1.8e-4 -0.211226,0.0182 -0.244025,0.0353 -0.02692,0.0141 -0.03011,0.21471 -0.03035,2.03303 -2.71e-4,1.91654 0.0014,2.01821 0.03353,2.03292 0.07123,0.0326 0.247281,0.0439 0.387234,0.0247 z m -46.6776809,-0.002 c 0.036389,-0.005 0.083633,-0.0152 0.1049468,-0.0246 0.038697,-0.017 0.038771,-0.0201 0.038844,-2.0299 6.28e-5,-1.79119 -0.00322,-2.01446 -0.029129,-2.02798 -0.034827,-0.0181 -0.15579,-0.0359 -0.2437064,-0.0359 -0.088381,1e-5 -0.189027,0.015 -0.2404516,0.0357 l -0.043591,0.0176 v 2.00772 c 0,1.86827 0.00219,2.00899 0.032212,2.0259 0.058419,0.033 0.2369265,0.0476 0.3809086,0.0314 z m 43.2029159,-0.0583 c 0.03672,-0.006 0.08639,-0.0169 0.110381,-0.0265 l 0.04356,-0.0176 -7.3e-5,-1.9524 c -7.2e-5,-1.92729 -5.62e-4,-1.9526 -0.03744,-1.96892 -0.10353,-0.0457 -0.359501,-0.0463 -0.484746,-8.6e-4 -0.03377,0.0121 -0.03501,0.0843 -0.03475,1.96888 2.96e-4,1.8374 0.0022,1.95715 0.0333,1.97123 0.03843,0.0176 0.163009,0.0357 0.245395,0.0357 0.03182,0 0.08762,-0.005 0.124332,-0.008 z m 53.583296,-0.0671 c 0.0362,-0.006 0.0837,-0.0156 0.10576,-0.0237 l 0.0399,-0.0146 v -1.89108 c 0,-1.82302 -0.002,-1.89156 -0.0353,-1.90545 -0.0387,-0.0159 -0.16792,-0.034 -0.24402,-0.034 -0.084,-1.9e-4 -0.21711,0.0214 -0.25378,0.0412 -0.0319,0.017 -0.0333,0.11641 -0.0289,1.90373 l 0.005,1.88564 0.0399,0.0146 c 0.0508,0.0186 0.15297,0.0326 0.23863,0.0326 0.037,0 0.0969,-0.005 0.13308,-0.008 z M 5.552253,192.37922 c 0.030225,-0.005 0.073013,-0.0138 0.095071,-0.0213 l 0.040115,-0.0137 -7.46e-5,-1.84144 c -7.01e-5,-1.83785 -1.46e-4,-1.84148 -0.038844,-1.85853 -0.1009442,-0.0445 -0.404063,-0.0409 -0.4866151,0.006 -0.028954,0.0164 -0.031452,0.16367 -0.031423,1.85015 2.91e-5,1.73427 0.00176,1.83326 0.033599,1.84995 0.061779,0.0325 0.257802,0.0471 0.3881456,0.0289 z m 13.84982,-0.0816 c 0.03573,-0.007 0.07587,-0.0176 0.08909,-0.0246 0.01957,-0.0101 0.02447,-0.37538 0.02447,-1.77358 2.21e-4,-1.75705 1.23e-4,-1.76084 -0.03842,-1.77789 -0.09668,-0.0425 -0.384174,-0.0419 -0.481858,8.5e-4 -0.035,0.0155 -0.03598,0.0631 -0.03598,1.7767 0,1.75637 9.7e-5,1.76086 0.03867,1.7779 0.07319,0.0323 0.280591,0.0426 0.404537,0.0202 z m 3.426767,-0.042 c 0.03646,-0.005 0.08371,-0.0152 0.105005,-0.0246 0.03867,-0.017 0.03867,-0.0212 0.03892,-1.73039 7.3e-5,-1.5451 -0.0025,-1.71486 -0.03011,-1.72895 -0.03377,-0.0175 -0.158358,-0.0352 -0.248405,-0.0352 -0.101323,0 -0.210492,0.017 -0.250069,0.0392 -0.03476,0.0194 -0.03598,0.0706 -0.03623,1.72403 -2.47e-4,1.68141 2.43e-4,1.70428 0.03744,1.72425 0.06511,0.035 0.231052,0.0489 0.383489,0.0317 z m 10.371136,-0.0464 c 0.03646,-0.005 0.08371,-0.0152 0.105006,-0.0246 0.03867,-0.017 0.03867,-0.0213 0.03892,-1.68392 7.4e-5,-1.50293 -0.0025,-1.66836 -0.03011,-1.68247 -0.03305,-0.017 -0.157134,-0.0352 -0.24329,-0.0353 -0.09349,-2e-4 -0.203394,0.0153 -0.248651,0.0349 l -0.04259,0.0185 -1.71e-4,1.66332 c -1.48e-4,1.64108 3.42e-4,1.66359 0.03744,1.68055 0.07146,0.0327 0.238151,0.0453 0.383416,0.029 z m 41.49282,-0.0122 c 0.03598,-0.006 0.08126,-0.0174 0.100594,-0.027 0.03377,-0.0169 0.035,-0.0795 0.035,-1.67005 -7.2e-5,-1.63977 -3.66e-4,-1.65258 -0.03818,-1.66928 -0.116999,-0.0515 -0.394877,-0.0494 -0.494787,0.005 l -0.04333,0.0232 0.0049,1.65016 c 0.0049,1.58056 0.0073,1.65074 0.03965,1.66436 0.08028,0.0329 0.261793,0.0443 0.396296,0.0248 z m -63.942441,-0.0176 c 0.02573,-0.003 0.06385,-0.0131 0.08471,-0.0222 0.03758,-0.0164 0.03794,-0.0324 0.03794,-1.65906 v -1.64255 l -0.05921,-0.0182 c -0.124463,-0.0381 -0.363944,-0.0333 -0.460137,0.008 -0.03699,0.0163 -0.0375,0.0391 -0.03758,1.65239 -7.8e-5,1.75855 -0.0062,1.64921 0.0932,1.67339 0.07471,0.0182 0.225497,0.0214 0.341038,0.007 z m 93.307985,0.002 c 0.0362,-0.006 0.0837,-0.0156 0.10547,-0.0237 l 0.0399,-0.0146 v -1.64319 c 0,-1.58293 -0.002,-1.6437 -0.0352,-1.65759 -0.0387,-0.0159 -0.1679,-0.034 -0.24402,-0.034 -0.084,-1.9e-4 -0.2171,0.0214 -0.25372,0.0412 -0.0319,0.017 -0.0334,0.10658 -0.0334,1.64868 -6e-5,1.74596 -0.005,1.65006 0.0913,1.67315 0.0815,0.0195 0.22836,0.024 0.32987,0.0101 z m -74.285108,-0.0182 c 0.03573,-0.007 0.07587,-0.0176 0.08885,-0.0246 0.01957,-0.0101 0.02447,-0.34853 0.02447,-1.63932 1.96e-4,-1.6042 -3.18e-4,-1.62678 -0.03721,-1.64308 -0.10255,-0.0453 -0.400106,-0.0434 -0.489517,0.003 -0.02667,0.0138 -0.02961,0.18482 -0.02986,1.63988 -1.71e-4,1.45933 0.0025,1.62604 0.02961,1.63999 0.06829,0.0356 0.281987,0.0478 0.413789,0.024 z m 24.145468,-0.0314 c 0.03402,-0.005 0.08346,-0.0134 0.109899,-0.0212 l 0.04798,-0.0141 0.0049,-1.59177 0.0049,-1.59176 -0.04406,-0.0176 c -0.111608,-0.0446 -0.353603,-0.0443 -0.478455,6.6e-4 -0.03353,0.0121 -0.035,0.0733 -0.03476,1.60222 1.96e-4,1.50341 0.0022,1.59049 0.03377,1.60532 0.03696,0.0173 0.157135,0.0346 0.240597,0.0348 0.02938,7e-5 0.08126,-0.003 0.115275,-0.007 z m 43.24443,-0.0186 c 0.149064,-0.0204 0.136153,0.13338 0.136153,-1.61526 -2.9e-5,-1.47802 -0.0019,-1.56415 -0.03361,-1.5809 -0.0536,-0.0282 -0.124024,-0.0391 -0.254451,-0.0391 -0.130165,0 -0.200941,0.0112 -0.254421,0.0391 -0.03185,0.0168 -0.0336,0.10291 -0.0336,1.58231 0,1.47925 0.0014,1.56555 0.0336,1.58254 0.07243,0.0387 0.251544,0.0526 0.406421,0.0314 z m -24.188082,-0.0256 c 0.03157,-0.005 0.07269,-0.0168 0.09129,-0.0265 0.03182,-0.0169 0.03353,-0.10214 0.03353,-1.56106 2.5e-5,-1.40645 -0.0025,-1.5447 -0.03083,-1.56064 -0.08738,-0.0494 -0.38432,-0.0519 -0.501071,-0.005 -0.03305,0.0136 -0.035,0.08 -0.0404,1.55321 -0.0025,1.03621 7.35e-4,1.54499 0.01468,1.55729 0.05116,0.0476 0.258734,0.0676 0.433394,0.0417 z m -58.758544,-0.002 c 0.03573,-0.007 0.07578,-0.0176 0.089,-0.0246 0.01909,-0.0101 0.02399,-0.33304 0.02424,-1.56186 2.11e-4,-1.54471 1.02e-4,-1.54915 -0.03855,-1.5662 -0.100944,-0.0445 -0.404063,-0.0409 -0.486615,0.006 -0.02891,0.0164 -0.03145,0.14251 -0.03138,1.56354 7.3e-5,1.54072 1.97e-4,1.54581 0.0388,1.56282 0.07326,0.0323 0.280609,0.0426 0.404553,0.0202 z m 70.865222,-0.0177 c 0.0279,-0.006 0.06584,-0.018 0.0842,-0.0277 0.03182,-0.0168 0.03353,-0.1009 0.03353,-1.53987 2.6e-5,-1.28616 -0.0049,-1.52481 -0.02667,-1.53929 -0.0404,-0.026 -0.134617,-0.0417 -0.250999,-0.0414 -0.131681,1.9e-4 -0.215878,0.0131 -0.261207,0.0399 -0.03548,0.0212 -0.03646,0.0594 -0.03646,1.53973 0,1.45692 0.0014,1.51896 0.03501,1.53877 0.01957,0.0113 0.0487,0.0238 0.06559,0.0275 0.08248,0.0183 0.269724,0.0196 0.356982,0.002 z m -46.69568,-0.0945 c 0.04772,-0.006 0.09302,-0.017 0.112586,-0.0271 0.03036,-0.0156 0.03207,-0.11229 0.02692,-1.45314 l -0.0049,-1.43645 -0.05678,-0.016 c -0.137071,-0.0385 -0.407083,-0.0276 -0.472946,0.0188 -0.0098,0.007 -0.01713,0.60134 -0.01713,1.44276 -4.65e-4,1.34832 0.0014,1.43131 0.0328,1.44561 0.03867,0.0176 0.163007,0.0358 0.244513,0.0358 0.03109,1e-5 0.09226,-0.005 0.136325,-0.0101 z m -13.829723,-0.0307 c 0.04308,-0.006 0.09349,-0.017 0.111608,-0.0254 0.03134,-0.0142 0.0333,-0.098 0.0333,-1.41993 v -1.40483 l -0.05924,-0.0182 c -0.03254,-0.0101 -0.09008,-0.0204 -0.127517,-0.0232 -0.10109,-0.008 -0.237171,0.002 -0.305164,0.0211 l -0.05532,0.0155 v 1.41151 1.4115 l 0.04798,0.014 c 0.09815,0.0285 0.223954,0.0349 0.35446,0.018 z m 84.709417,-0.12163 c 0.0279,-0.005 0.067,-0.0136 0.0872,-0.0215 0.0355,-0.0139 0.0365,-0.047 0.0418,-1.28987 0.005,-1.15563 0.002,-1.27748 -0.0254,-1.29716 -0.0404,-0.0288 -0.12461,-0.0429 -0.25774,-0.0429 -0.12242,0 -0.19458,0.0101 -0.24855,0.0364 l -0.0402,0.0193 v 1.27394 c 0,1.15445 0.003,1.27555 0.0305,1.29125 0.0374,0.0213 0.0637,0.0273 0.15639,0.0364 0.078,0.008 0.17452,0.006 0.25596,-0.006 z m -39.758531,-0.048 c 0.03598,-0.006 0.08126,-0.0174 0.100594,-0.0271 0.03402,-0.0169 0.03501,-0.0637 0.03035,-1.25275 l -0.0049,-1.23509 -0.05605,-0.0158 c -0.06903,-0.0194 -0.164723,-0.0283 -0.2639,-0.0248 -0.105239,0.005 -0.167415,0.0163 -0.210246,0.0424 -0.03598,0.0219 -0.03672,0.0502 -0.03182,1.24788 l 0.0049,1.22554 0.04602,0.0174 c 0.082,0.0309 0.255456,0.041 0.384933,0.0222 z m -32.843897,-0.0469 c 0.03989,-0.006 0.08713,-0.0175 0.105735,-0.0271 0.03182,-0.0163 0.0333,-0.0831 0.0279,-1.20579 l -0.0049,-1.18861 -0.05678,-0.016 c -0.113565,-0.0318 -0.287003,-0.0332 -0.408428,-0.003 -0.05703,0.0139 -0.07049,0.0215 -0.08102,0.0449 -0.0073,0.0154 -0.01227,0.55082 -0.0098,1.18983 0.0019,1.08495 0.0049,1.16293 0.03501,1.17853 0.06609,0.0337 0.253741,0.0469 0.39389,0.0276 z m 20.737276,-0.0154 c 0.156891,-0.019 0.143426,0.0988 0.137802,-1.21831 l -0.0049,-1.17218 -0.04798,-0.0139 c -0.09741,-0.0283 -0.222975,-0.0348 -0.358841,-0.0181 -0.153708,0.0187 -0.140241,-0.0972 -0.140738,1.21149 -4.65e-4,1.11816 7.1e-4,1.17129 0.03402,1.18669 0.06878,0.0322 0.231785,0.0426 0.380428,0.0245 z m 24.223064,-0.006 c 0.128014,-0.0211 0.118957,0.0707 0.118957,-1.20593 0,-1.29967 0.01227,-1.18509 -0.14049,-1.2062 -0.149057,-0.0204 -0.329665,-0.006 -0.402064,0.0322 -0.03157,0.0168 -0.03353,0.0834 -0.03353,1.17436 0,1.09091 0.0022,1.15768 0.03353,1.17464 0.07342,0.0393 0.280541,0.0545 0.423677,0.0309 z m -1.721093,-0.0521 c 0.11919,-0.0228 0.11136,0.0571 0.11136,-1.15447 -2.3e-5,-1.0456 -0.0022,-1.11009 -0.03353,-1.12695 -0.04576,-0.0245 -0.141233,-0.0384 -0.259714,-0.0379 -0.102069,3.8e-4 -0.164478,0.0101 -0.233499,0.0345 l -0.03965,0.0143 -0.0049,1.11027 c -0.0048,1.0937 -0.0048,1.11062 0.0328,1.13319 0.06829,0.0414 0.281447,0.0549 0.427274,0.027 z m -19.093315,6.7e-4 c 0.03769,-0.002 0.09374,-0.0122 0.124829,-0.0211 l 0.05653,-0.0159 0.0049,-1.11161 0.0049,-1.11161 -0.04406,-0.0176 c -0.05531,-0.0221 -0.133141,-0.0324 -0.245639,-0.0325 -0.109168,-6e-5 -0.214899,0.0164 -0.249704,0.039 -0.01957,0.0133 -0.02521,0.22266 -0.02496,1.11919 1.23e-4,1.04043 0.0022,1.10386 0.03377,1.12006 0.02203,0.0112 0.06316,0.0207 0.114063,0.027 0.09178,0.0112 0.129723,0.012 0.225424,0.005 z m -34.493057,-0.0272 c 0.03573,-0.007 0.07587,-0.0176 0.08885,-0.0246 0.01957,-0.0101 0.02447,-0.24108 0.02447,-1.10228 2.18e-4,-1.07158 -3.92e-4,-1.0898 -0.03721,-1.10607 -0.102799,-0.0453 -0.400107,-0.0433 -0.489616,0.003 -0.02667,0.0138 -0.02986,0.13089 -0.03011,1.10274 -3.92e-4,1.20247 -0.0098,1.10699 0.121395,1.12864 0.08787,0.0144 0.238149,0.0136 0.322469,-8.4e-4 z m 44.936298,-0.071 c 0.127517,-0.0209 0.118956,0.0556 0.118956,-1.05704 0,-0.96932 -0.0014,-1.01177 -0.035,-1.02862 -0.09472,-0.0475 -0.38317,-0.0487 -0.496812,-0.002 -0.03305,0.0136 -0.03475,0.0597 -0.03475,1.03192 0,0.97221 0.0014,1.01834 0.03475,1.03193 0.08248,0.034 0.281889,0.0455 0.413032,0.0239 z m -58.791466,-0.0874 c 0.153268,-0.0187 0.140519,0.0692 0.140519,-0.96872 0,-1.04418 0.01493,-0.94726 -0.149156,-0.96862 -0.14287,-0.0186 -0.309228,-0.005 -0.379383,0.0318 -0.02479,0.013 -0.02841,0.13307 -0.02841,0.93858 v 0.9238 l 0.04359,0.0176 c 0.05043,0.0203 0.152019,0.0358 0.234896,0.0356 0.0317,-7e-5 0.09377,-0.005 0.137976,-0.0101 z m -5.145092,-0.10192 c 0.028618,-0.006 0.062714,-0.016 0.075759,-0.0228 0.018596,-0.0101 0.023739,-0.19421 0.023987,-0.84377 2.046e-4,-0.80434 -9.451e-4,-0.83187 -0.035864,-0.84725 -0.071669,-0.0315 -0.2338179,-0.0413 -0.3766867,-0.023 -0.1566695,0.0204 -0.1440683,-0.0558 -0.1440683,0.87162 0,0.78896 0.00146,0.82558 0.035104,0.8424 0.050867,0.0256 0.1432063,0.0376 0.2681944,0.035 0.061779,-8.6e-4 0.1220387,-0.006 0.1536353,-0.0125 z m 36.286536,-3.8e-4 c 0.120667,-0.0193 0.113319,0.0395 0.107943,-0.87348 l -0.0049,-0.83165 -0.06217,-0.0168 c -0.05556,-0.0151 -0.07587,-0.017 -0.193114,-0.0186 -0.119687,-0.002 -0.136092,-6.6e-4 -0.19287,0.012 -0.03402,0.008 -0.07025,0.0184 -0.08077,0.0236 -0.01227,0.006 -0.01957,0.30523 -0.01957,0.8394 0,0.76868 0.0023,0.8309 0.03231,0.84326 0.01714,0.008 0.04576,0.0163 0.06242,0.0198 0.08444,0.0178 0.246593,0.019 0.349881,0.002 z"
       id="path418" /></g></svg>
